<svg id="algorithm" xmlns="http://www.w3.org/2000/svg" width="22.949" height="22.209" viewBox="0 0 22.949 22.209">
  <g id="Group_3160" data-name="Group 3160" transform="translate(9 2)">
    <g id="Group_3159" data-name="Group 3159" transform="translate(0 0)">
      <rect id="Rectangle_701" data-name="Rectangle 701" width="5" transform="translate(0 -0.282)"/>
    </g>
  </g>
  <g id="Group_3162" data-name="Group 3162" transform="translate(9 3)">
    <g id="Group_3161" data-name="Group 3161" transform="translate(0 0)">
      <rect id="Rectangle_702" data-name="Rectangle 702" width="5" height="1" transform="translate(0 -0.282)"/>
    </g>
  </g>
  <g id="Group_3164" data-name="Group 3164" transform="translate(9 5)">
    <g id="Group_3163" data-name="Group 3163" transform="translate(0 0)">
      <rect id="Rectangle_703" data-name="Rectangle 703" width="5" height="1" transform="translate(0 -0.282)"/>
    </g>
  </g>
  <g id="Group_3166" data-name="Group 3166" transform="translate(9 6)">
    <g id="Group_3165" data-name="Group 3165" transform="translate(0 0)">
      <rect id="Rectangle_704" data-name="Rectangle 704" width="5" height="1" transform="translate(0 -0.282)"/>
    </g>
  </g>
  <g id="Group_3168" data-name="Group 3168">
    <g id="Group_3167" data-name="Group 3167" transform="translate(0 0)">
      <path id="Path_11621" data-name="Path 11621" d="M20.728,25.056v-1.51a.37.37,0,0,0-.37-.37H11.845V21.7h2.221a.371.371,0,0,0,.331-.2l1.481-2.961a.37.37,0,0,0-.331-.536h-3.7V16.143h3.331a.37.37,0,0,0,.37-.37V11.7h1.11v1.11a.37.37,0,0,0,.37.37h4.442a.37.37,0,0,0,.37-.37V9.851a.37.37,0,0,0-.37-.37H17.027a.37.37,0,0,0-.37.37v1.11h-1.11V8.37a.37.37,0,0,0-.37-.37h-7.4a.37.37,0,0,0-.37.37v2.068l-.849-.849-.523.523.849.849H3.331v.74H6.88l-.849.849.523.523.849-.849v3.548a.37.37,0,0,0,.37.37H11.1v1.851H8.884a.371.371,0,0,0-.331.2L7.072,21.16A.37.37,0,0,0,7.4,21.7h3.7v1.481H2.591a.37.37,0,0,0-.37.37v1.51a2.591,2.591,0,1,0,.74,0v-1.14H8.143v1.14a2.591,2.591,0,1,0,.74,0v-1.14h5.182v1.14a2.591,2.591,0,1,0,.74,0v-1.14h5.182v1.14a2.591,2.591,0,1,0,.74,0ZM17.4,10.221h3.7v2.221H17.4ZM4.442,27.618a1.851,1.851,0,1,1-1.851-1.851A1.853,1.853,0,0,1,4.442,27.618Zm5.922,0a1.851,1.851,0,1,1-1.851-1.851A1.853,1.853,0,0,1,10.364,27.618ZM8.143,15.4V8.74h6.663V15.4ZM8,20.955l1.11-2.221h5.835l-1.11,2.221Zm8.285,6.663a1.851,1.851,0,1,1-1.851-1.851A1.853,1.853,0,0,1,16.287,27.618Zm4.072,1.851a1.851,1.851,0,1,1,1.851-1.851A1.853,1.853,0,0,1,20.358,29.469Z" transform="translate(0 -8)"/>
    </g>
  </g>
  <g id="Group_3170" data-name="Group 3170" transform="translate(18 6)">
    <g id="Group_3169" data-name="Group 3169" transform="translate(0 0)">
      <rect id="Rectangle_705" data-name="Rectangle 705" width="1" height="1" transform="translate(0 -0.282)"/>
    </g>
  </g>
  <g id="Group_3172" data-name="Group 3172" transform="translate(18 7)">
    <g id="Group_3171" data-name="Group 3171" transform="translate(0 0)">
      <rect id="Rectangle_706" data-name="Rectangle 706" width="1" height="1" transform="translate(0 -0.282)"/>
    </g>
  </g>
  <g id="Group_3174" data-name="Group 3174" transform="translate(18 8)">
    <g id="Group_3173" data-name="Group 3173" transform="translate(0 0)">
      <rect id="Rectangle_707" data-name="Rectangle 707" width="1" height="1" transform="translate(0 -0.282)"/>
    </g>
  </g>
  <g id="Group_3176" data-name="Group 3176" transform="translate(18 10)">
    <g id="Group_3175" data-name="Group 3175" transform="translate(0 0)">
      <rect id="Rectangle_708" data-name="Rectangle 708" width="1" height="1" transform="translate(0 -0.282)"/>
    </g>
  </g>
  <g id="Group_3178" data-name="Group 3178" transform="translate(18 12)">
    <g id="Group_3177" data-name="Group 3177" transform="translate(0 0)">
      <rect id="Rectangle_709" data-name="Rectangle 709" width="1" height="1" transform="translate(0 -0.282)"/>
    </g>
  </g>
  <g id="Group_3180" data-name="Group 3180" transform="translate(17 12)">
    <g id="Group_3179" data-name="Group 3179" transform="translate(0 0)">
      <rect id="Rectangle_710" data-name="Rectangle 710" width="1" height="1" transform="translate(0 -0.282)"/>
    </g>
  </g>
  <g id="Group_3182" data-name="Group 3182" transform="translate(16 12)">
    <g id="Group_3181" data-name="Group 3181" transform="translate(0 0)">
      <rect id="Rectangle_711" data-name="Rectangle 711" height="1" transform="translate(0 -0.282)"/>
    </g>
  </g>
  <g id="Group_3184" data-name="Group 3184" transform="translate(2 3)">
    <g id="Group_3183" data-name="Group 3183" transform="translate(0 0)">
      <rect id="Rectangle_712" data-name="Rectangle 712" height="1" transform="translate(0 -0.282)"/>
    </g>
  </g>
  <g id="Group_3186" data-name="Group 3186" transform="translate(1 3)">
    <g id="Group_3185" data-name="Group 3185" transform="translate(0 0)">
      <rect id="Rectangle_713" data-name="Rectangle 713" width="1" height="1" transform="translate(0 -0.282)"/>
    </g>
  </g>
  <g id="Group_3188" data-name="Group 3188" transform="translate(9 11)">
    <g id="Group_3187" data-name="Group 3187" transform="translate(0 0)">
      <rect id="Rectangle_714" data-name="Rectangle 714" width="5" height="1" transform="translate(0 -0.282)"/>
    </g>
  </g>
</svg>
