<svg id="calendar" xmlns="http://www.w3.org/2000/svg" width="23" height="23" viewBox="0 0 23 23">
  <g id="Group_3190" data-name="Group 3190">
    <g id="Group_3189" data-name="Group 3189">
      <path id="Path_11628" data-name="Path 11628" d="M20.754,1.977H18.613V1.348a1.348,1.348,0,0,0-2.7,0v.629H8.37V1.348a1.348,1.348,0,1,0-2.7,0v.646a.448.448,0,0,0-.12-.017H3.765A2.249,2.249,0,0,0,1.519,4.223v7.652a.449.449,0,0,0,.9,0V6.6H18.613a.449.449,0,0,0,0-.9H2.418V4.223A1.349,1.349,0,0,1,3.765,2.875h1.79a.45.45,0,0,0,.12-.017v.578a1.348,1.348,0,1,0,2.7,0V2.875h7.547v.562a1.348,1.348,0,0,0,2.7,0V2.875h2.141A1.349,1.349,0,0,1,22.1,4.223v17.07a.809.809,0,0,1-1.618,0V20.131a.449.449,0,0,0-.449-.449H14.809a.449.449,0,0,0,0,.9h4.776v.713a1.7,1.7,0,0,0,.2.809H1.707A.81.81,0,0,1,.9,21.293V20.58H10.953a.449.449,0,0,0,0-.9H6.465a3.684,3.684,0,1,0-4.8,0H.449A.449.449,0,0,0,0,20.131v1.162A1.709,1.709,0,0,0,1.707,23H21.293A1.709,1.709,0,0,0,23,21.293V4.223A2.249,2.249,0,0,0,20.754,1.977ZM7.472,3.437a.449.449,0,0,1-.9,0V1.348a.449.449,0,0,1,.9,0Zm10.242,0a.449.449,0,0,1-.9,0V1.348a.449.449,0,0,1,.9,0ZM1.279,16.891a2.785,2.785,0,1,1,2.785,2.785A2.788,2.788,0,0,1,1.279,16.891Z"/>
    </g>
  </g>
  <g id="Group_3192" data-name="Group 3192" transform="translate(20.271 5.705)">
    <g id="Group_3191" data-name="Group 3191">
      <path id="Path_11629" data-name="Path 11629" d="M452.007,127.132a.449.449,0,1,0,.132.318A.452.452,0,0,0,452.007,127.132Z" transform="translate(-451.24 -127)"/>
    </g>
  </g>
  <g id="Group_3194" data-name="Group 3194" transform="translate(12.649 19.682)">
    <g id="Group_3193" data-name="Group 3193">
      <path id="Path_11630" data-name="Path 11630" d="M282.347,438.261a.449.449,0,1,0,.132.318A.452.452,0,0,0,282.347,438.261Z" transform="translate(-281.58 -438.13)"/>
    </g>
  </g>
  <g id="Group_3196" data-name="Group 3196" transform="translate(8.456 13.656)">
    <g id="Group_3195" data-name="Group 3195">
      <path id="Path_11631" data-name="Path 11631" d="M189.952,304a1.707,1.707,0,1,0,1.707,1.707A1.709,1.709,0,0,0,189.952,304Zm0,2.516a.809.809,0,1,1,.809-.809A.81.81,0,0,1,189.952,306.516Z" transform="translate(-188.245 -304)"/>
    </g>
  </g>
  <g id="Group_3198" data-name="Group 3198" transform="translate(12.649 13.656)">
    <g id="Group_3197" data-name="Group 3197">
      <path id="Path_11632" data-name="Path 11632" d="M283.285,304a1.707,1.707,0,1,0,1.707,1.707A1.709,1.709,0,0,0,283.285,304Zm0,2.516a.809.809,0,1,1,.809-.809A.81.81,0,0,1,283.285,306.516Z" transform="translate(-281.578 -304)"/>
    </g>
  </g>
  <g id="Group_3200" data-name="Group 3200" transform="translate(16.842 13.656)">
    <g id="Group_3199" data-name="Group 3199">
      <path id="Path_11633" data-name="Path 11633" d="M376.619,304a1.707,1.707,0,1,0,1.707,1.707A1.709,1.709,0,0,0,376.619,304Zm0,2.516a.809.809,0,1,1,.809-.809A.81.81,0,0,1,376.619,306.516Z" transform="translate(-374.912 -304)"/>
    </g>
  </g>
  <g id="Group_3202" data-name="Group 3202" transform="translate(4.264 8.984)">
    <g id="Group_3201" data-name="Group 3201">
      <path id="Path_11634" data-name="Path 11634" d="M96.619,200a1.707,1.707,0,1,0,1.707,1.707A1.709,1.709,0,0,0,96.619,200Zm0,2.516a.809.809,0,1,1,.809-.809A.81.81,0,0,1,96.619,202.516Z" transform="translate(-94.912 -200)"/>
    </g>
  </g>
  <g id="Group_3204" data-name="Group 3204" transform="translate(12.649 8.984)">
    <g id="Group_3203" data-name="Group 3203">
      <path id="Path_11635" data-name="Path 11635" d="M283.285,200a1.707,1.707,0,1,0,1.707,1.707A1.709,1.709,0,0,0,283.285,200Zm0,2.516a.809.809,0,1,1,.809-.809A.81.81,0,0,1,283.285,202.516Z" transform="translate(-281.578 -200)"/>
    </g>
  </g>
  <g id="Group_3206" data-name="Group 3206" transform="translate(16.842 8.984)">
    <g id="Group_3205" data-name="Group 3205">
      <path id="Path_11636" data-name="Path 11636" d="M376.619,200a1.707,1.707,0,1,0,1.707,1.707A1.709,1.709,0,0,0,376.619,200Zm0,2.516a.809.809,0,1,1,.809-.809A.81.81,0,0,1,376.619,202.516Z" transform="translate(-374.912 -200)"/>
    </g>
  </g>
  <g id="Group_3208" data-name="Group 3208" transform="translate(8.456 8.984)">
    <g id="Group_3207" data-name="Group 3207">
      <path id="Path_11637" data-name="Path 11637" d="M189.952,200a1.707,1.707,0,1,0,1.707,1.707A1.709,1.709,0,0,0,189.952,200Zm0,2.516a.809.809,0,1,1,.809-.809A.81.81,0,0,1,189.952,202.516Z" transform="translate(-188.245 -200)"/>
    </g>
  </g>
  <g id="Group_3210" data-name="Group 3210" transform="translate(2.3 15.664)">
    <g id="Group_3209" data-name="Group 3209">
      <path id="Path_11638" data-name="Path 11638" d="M54.559,348.832a.449.449,0,0,0-.635,0l-1.463,1.463-.5-.5a.449.449,0,1,0-.635.635l.818.818a.449.449,0,0,0,.635,0l1.781-1.781A.449.449,0,0,0,54.559,348.832Z" transform="translate(-51.194 -348.7)"/>
    </g>
  </g>
</svg>
