<svg xmlns="http://www.w3.org/2000/svg" width="24.369" height="24.177" viewBox="0 0 24.369 24.177">
  <g id="leadership" transform="translate(0 0.152)">
    <path id="Path_11461" data-name="Path 11461" d="M72.3,44.617A2.418,2.418,0,1,0,69.883,42.2,2.418,2.418,0,0,0,72.3,44.617Zm0-4.029A1.612,1.612,0,1,1,70.688,42.2,1.612,1.612,0,0,1,72.3,40.587Zm0,0" transform="translate(-67.062 -38.322)"/>
    <path id="Path_11462" data-name="Path 11462" d="M119.8,409.156h.806v7.656H119.8Zm0,0" transform="translate(-114.961 -392.787)"/>
    <path id="Path_11463" data-name="Path 11463" d="M24.37,2.668H19.745V1.057H13.7v-.2a1.007,1.007,0,1,0-2.015,0V7.1H2.821A2.824,2.824,0,0,0,0,9.922v4.03a2.017,2.017,0,0,0,2.015,2.015h.4v8.059h.806V9.519H2.418V15.16h-.4A1.209,1.209,0,0,1,.806,13.951V9.922A2.017,2.017,0,0,1,2.821,7.907H13.7v.4a1.209,1.209,0,0,1-1.209,1.209H7.253V24.025h.806v-13.7h3.627v13.7H13.7V9.911a2.006,2.006,0,0,0,.806-1.6V7.1H13.7V5.892h4.03V7.5H24.37L23.4,5.086ZM12.895,23.219h-.4V10.325a2.01,2.01,0,0,0,.4-.04Zm0-16.118h-.4V.855a.2.2,0,1,1,.4,0ZM13.7,1.863h5.238V5.086H13.7ZM23.179,6.7H18.536V5.892h1.209V3.474h3.434l-.645,1.612Zm0,0"/>
  </g>
</svg>
