<svg xmlns="http://www.w3.org/2000/svg" width="24.369" height="24.369" viewBox="0 0 24.369 24.369">
  <g id="pay" transform="translate(-1 -1)">
    <path id="Path_11465" data-name="Path 11465" d="M8.931,39a3.931,3.931,0,1,0,3.931,3.931A3.935,3.935,0,0,0,8.931,39Zm0,7.075a3.144,3.144,0,1,1,3.144-3.144A3.148,3.148,0,0,1,8.931,46.075Z" transform="translate(-2.428 -23.064)"/>
    <path id="Path_11466" data-name="Path 11466" d="M12.964,45.2l-.671.671.556.556.9-.9V43h-.786Z" transform="translate(-6.854 -25.492)"/>
    <path id="Path_11467" data-name="Path 11467" d="M24.19,2.572H23.011V2.179a1.179,1.179,0,0,0-2.358,0v.393h-.786V2.179a1.179,1.179,0,1,0-2.358,0v.393H13.578V2.179a1.179,1.179,0,1,0-2.358,0v.393h-.786V2.179a1.179,1.179,0,0,0-2.358,0v.393H6.9A1.181,1.181,0,0,0,5.717,3.751v7.468H4.144v2.358h.786V14.6a5.5,5.5,0,1,0,7.075,5.271h-.786a4.71,4.71,0,1,1-.126-1.089l.072.3H24.19A1.181,1.181,0,0,0,25.369,17.9V3.751A1.181,1.181,0,0,0,24.19,2.572Zm-2.751-.393a.393.393,0,1,1,.786,0V4.144h-.786Zm-3.144,0a.393.393,0,0,1,.786,0V4.144h-.786Zm-6.289,0a.393.393,0,1,1,.786,0V4.144h-.786Zm-3.144,0a.393.393,0,1,1,.786,0V4.144H8.861ZM4.931,12.005H8.075v.786H4.931Zm2.358,2.417a5.582,5.582,0,0,0-.786-.059,5.457,5.457,0,0,0-.786.063v-.849H7.289ZM24.583,17.9a.393.393,0,0,1-.393.393H11.778a5.524,5.524,0,0,0-.3-.786H23.011V7.289H8.075v3.119h.786V8.075H22.225v8.647h-11.2a5.468,5.468,0,0,0-2.949-2.128V13.578h.786V11.219H6.5V6.5h18.08Zm0-12.185H6.5V3.751A.393.393,0,0,1,6.9,3.358H8.075v.786a.787.787,0,0,0,.786.786h.786a.787.787,0,0,0,.786-.786V3.358h.786v.786a.787.787,0,0,0,.786.786h.786a.787.787,0,0,0,.786-.786V3.358h3.931v.786a.787.787,0,0,0,.786.786h.786a.787.787,0,0,0,.786-.786V3.358h.786v.786a.787.787,0,0,0,.786.786h.786a.787.787,0,0,0,.786-.786V3.358H24.19a.393.393,0,0,1,.393.393Z"/>
    <path id="Path_11468" data-name="Path 11468" d="M35.572,26.5a.787.787,0,0,1-.786-.786H34a1.571,1.571,0,0,0,1.179,1.516v.842h.786v-.842a1.569,1.569,0,0,0-.393-3.089.786.786,0,1,1,.786-.786h.786a1.571,1.571,0,0,0-1.179-1.516V21h-.786v.842a1.569,1.569,0,0,0,.393,3.089.786.786,0,0,1,0,1.572Z" transform="translate(-20.029 -12.139)"/>
  </g>
</svg>
