<svg id="query" xmlns="http://www.w3.org/2000/svg" width="22.949" height="22.949" viewBox="0 0 22.949 22.949">
  <path id="Path_11617" data-name="Path 11617" d="M23.949,8.4V1.74H18.767V4.7h-5.6a7.037,7.037,0,0,0-1.219-1.029.733.733,0,0,0,.158-.452V1.74a.741.741,0,0,0-.74-.74H4.7a.741.741,0,0,0-.74.74V3.221a.733.733,0,0,0,.158.452A7.029,7.029,0,0,0,6.552,16.386v1.27A1.1,1.1,0,0,0,6.7,18.2a1.108,1.108,0,0,0-.519.936V22.1a1.851,1.851,0,0,0,3.7,0V20.248h8.884v2.961h5.182V16.546H18.767v2.961H9.884v-.37a1.108,1.108,0,0,0-.519-.936,1.1,1.1,0,0,0,.148-.544v-1.27a7.055,7.055,0,0,0,4.711-3.542h4.543v2.961h5.182V9.143H18.767V12.1h-4.2a7.015,7.015,0,0,0-.793-6.663h5V8.4Zm-4.442,8.884h3.7v5.182h-3.7Zm0-7.4h3.7v5.182h-3.7ZM12.1,6.949a4.812,4.812,0,1,1-8.138,0,.74.74,0,0,0,.738.714V8.4a.741.741,0,0,0-.74.74v1.481a.741.741,0,0,0,.74.74h6.663a.741.741,0,0,0,.74-.74V9.143a.741.741,0,0,0-.74-.74v-.74A.74.74,0,0,0,12.1,6.949Zm-.738,2.194v1.481H4.7V9.143ZM5.442,8.4v-.74h5.182V8.4ZM4.7,6.922V5.442h6.663V6.922ZM5.442,4.7v-.74h5.182V4.7ZM4.7,1.74h6.663V3.221H4.7ZM9.143,22.1a1.11,1.11,0,1,1-2.221,0V19.137a.371.371,0,0,1,.37-.37H8.773a.371.371,0,0,1,.37.37Zm-.37-4.442a.371.371,0,0,1-.37.37h-.74a.371.371,0,0,1-.37-.37v-1.15a6.939,6.939,0,0,0,1.481,0Zm-.74-1.851A6.292,6.292,0,0,1,4.7,4.176V4.7a.741.741,0,0,0-.74.74v.3a5.553,5.553,0,1,0,8.143,0V5.442a.741.741,0,0,0-.74-.74V4.176a6.292,6.292,0,0,1-3.331,11.63ZM19.507,2.481h3.7V7.663h-3.7Z" transform="translate(-1 -1)"/>
  <path id="Path_11618" data-name="Path 11618" d="M54.481,7H53v.74h.74V9.961H53v.74h2.221v-.74h-.74Z" transform="translate(-33.752 -4.779)"/>
  <path id="Path_11619" data-name="Path 11619" d="M54.777,29A1.11,1.11,0,1,0,53,28.11v.37h.74v-.37a.37.37,0,1,1,.592.3l-1.333,1v1.3h2.221v-.74H53.74v-.185Z" transform="translate(-33.752 -17.376)"/>
  <path id="Path_11620" data-name="Path 11620" d="M54.11,47H53v.74h1.11a.37.37,0,0,1,0,.74H53v.74h1.11a.37.37,0,1,1,0,.74H53v.74h1.11a1.106,1.106,0,0,0,.822-1.851A1.106,1.106,0,0,0,54.11,47Z" transform="translate(-33.752 -29.973)"/>
</svg>
