<svg id="retro" xmlns="http://www.w3.org/2000/svg" width="23.37" height="23.37" viewBox="0 0 23.37 23.37">
  <g id="Shape_1_1_">
    <g id="Shape_1">
      <g id="g6">
        <path id="path8" d="M156.383,143.906a5.323,5.323,0,0,1-1.859-4.487q.154-2.692-2.538-2.538a5.322,5.322,0,0,1-4.487-1.859q-1.795-2.013-3.59,0a5.322,5.322,0,0,1-4.487,1.859q-2.692-.154-2.538,2.538a5.322,5.322,0,0,1-1.859,4.487q-2.013,1.795,0,3.59a5.322,5.322,0,0,1,1.859,4.487q-.154,2.692,2.538,2.538a5.322,5.322,0,0,1,4.487,1.859q1.795,2.013,3.59,0a5.323,5.323,0,0,1,4.487-1.859q2.692.154,2.538-2.538a5.322,5.322,0,0,1,1.859-4.487Q158.4,145.7,156.383,143.906ZM145.7,155.042a9.34,9.34,0,1,1,9.341-9.34A9.34,9.34,0,0,1,145.7,155.042Z" transform="translate(-134.019 -134.016)" fill="#343434"/>
      </g>
    </g>
  </g>
  <g id="Shape_2_1_" transform="translate(2.553 2.554)">
    <g id="Shape_2">
      <g id="g12">
        <path id="path14" d="M219.413,229.924l.215-.744-.537.558-.537-.558.215.744-.752.186.752.186-.215.744.537-.558.537.558-.215-.744.752-.186-.752-.186Zm.215-14.7-.537.558-.537-.558.215.744-.752.186.752.186-.215.744.537-.558.537.558-.215-.744.752-.186-.752-.186.215-.744Zm-3.3,3.557-.186-.752-.186.752-.744-.215.558.537-.558.537.744-.215.186.752.186-.752.744.215-.558-.537.558-.537-.745.215Zm13.584.645.186.752.186-.752.744.215-.558-.537.558-.537-.744.215-.186-.752-.186.752-.744-.215.558.537-.558.537.745-.215Zm-13.584,7.413-.186-.752-.186.752-.744-.215.558.537-.558.537.744-.215.186.752.186-.752.744.215-.558-.537.558-.537-.745.215Zm-.943-3.52.752-.186-.752-.186.215-.744-.537.558-.537-.558.215.744-.752.186.752.186-.215.744.537-.558.537.558-.215-.744Zm7.921,7.549-.186-.752-.186.752-.744-.215.558.537-.558.537.744-.215.186.752.186-.752.744.215-.558-.537.558-.537-.744.215Zm6.978-4.029-.186-.752-.186.752-.744-.215.558.537-.558.537.744-.215.186.752.186-.752.744.215-.558-.537.558-.537-.744.215Zm1.968-3.706-.752-.186.215-.744-.537.558-.537-.558.215.744-.752.186.752.186-.215.744.537-.558.537.558-.215-.744.752-.186Zm-8.946-8.38-.186-.752-.186.752-.744-.215.558.537-.558.537.744-.215.186.752.186-.752.744.215-.558-.537.558-.537-.744.215Zm4.165,15.172.215-.745-.537.558-.537-.558.215.744-.752.186.752.186-.215.744.537-.558.537.558-.215-.744.752-.186-.752-.186Zm.215-14.7-.537.558-.537-.558.215.744-.752.186.752.186-.215.744.537-.558.537.558-.215-.744.752-.186-.752-.186.215-.744Z" transform="translate(-213.987 -214)" fill="#343434"/>
      </g>
    </g>
  </g>
  <g id="Shape_4_1_" transform="translate(4.645 4.645)">
    <g id="Shape_4" transform="translate(0)">
      <g id="g18">
        <path id="path20" d="M286.531,279.49a7.041,7.041,0,1,0,7.041,7.041A7.041,7.041,0,0,0,286.531,279.49Zm0,13.94a6.9,6.9,0,1,1,6.9-6.9A6.9,6.9,0,0,1,286.531,293.43Z" transform="translate(-279.49 -279.49)" fill="#343434"/>
      </g>
    </g>
  </g>
</svg>
