<svg id="transfer" xmlns="http://www.w3.org/2000/svg" width="23.369" height="25.038" viewBox="0 0 23.369 25.038">
  <path id="Path_11622" data-name="Path 11622" d="M22.952,11.685H19.2v-9.6A2.089,2.089,0,0,0,17.11,0H3.338A1.669,1.669,0,0,0,1.669,1.669V6.677H.417A.417.417,0,0,0,0,7.094V9.6a.417.417,0,0,0,.417.417H1.669v4.59a.417.417,0,0,0,.417.417H4.173v8.346a1.669,1.669,0,0,0,1.669,1.669H19.613a1.669,1.669,0,0,0,0-3.338H19.2V15.023h3.756a.417.417,0,0,0,.417-.417V12.1A.417.417,0,0,0,22.952,11.685ZM2.5,1.669a.835.835,0,1,1,1.669,0V6.677H2.5ZM.835,7.512H12.519a.417.417,0,0,0,.414-.364l1.438,1.2-1.438,1.2a.417.417,0,0,0-.414-.364H.835ZM2.5,14.188V10.015H4.173v4.173Zm17.944,9.181a.835.835,0,0,1-.835.835H7.287a1.656,1.656,0,0,0,.224-.835v-.835h12.1a.835.835,0,0,1,.835.835ZM18.361,21.7H7.094a.417.417,0,0,0-.417.417v1.252a.835.835,0,0,1-1.669,0V10.015H12.1v.417a.417.417,0,0,0,.685.321l2.5-2.087a.417.417,0,0,0,0-.641l-2.5-2.087a.417.417,0,0,0-.685.321v.417H5.008V1.669A1.651,1.651,0,0,0,4.776.835H17.11a1.252,1.252,0,0,1,1.252,1.252v9.6H11.267v-.417a.417.417,0,0,0-.685-.321l-2.5,2.087a.417.417,0,0,0,0,.641l2.5,2.087a.417.417,0,0,0,.685-.321v-.417h7.094Zm4.173-7.512H10.85a.408.408,0,0,0-.156.032,1.447,1.447,0,0,0-.128.083.44.44,0,0,0-.037.048.4.4,0,0,0-.052.077.365.365,0,0,0-.019.061.36.36,0,0,0-.021.063L9,13.354l1.438-1.2a.36.36,0,0,0,.021.063.347.347,0,0,0,.019.061.387.387,0,0,0,.052.077.44.44,0,0,0,.037.048,1.448,1.448,0,0,0,.128.083.4.4,0,0,0,.157.032H22.535Zm0,0"/>
  <path id="Path_11623" data-name="Path 11623" d="M128,48h4.173v.835H128Zm0,0" transform="translate(-121.323 -45.496)"/>
  <path id="Path_11624" data-name="Path 11624" d="M128,80h4.173v.835H128Zm0,0" transform="translate(-121.323 -75.827)"/>
  <path id="Path_11625" data-name="Path 11625" d="M160,352h8.346v.835H160Zm0,0" transform="translate(-151.654 -333.639)"/>
  <path id="Path_11626" data-name="Path 11626" d="M160,384h8.346v.835H160Zm0,0" transform="translate(-151.654 -363.969)"/>
  <path id="Path_11627" data-name="Path 11627" d="M272,320h2.5v.835H272Zm0,0" transform="translate(-257.812 -303.308)"/>
</svg>
