<svg xmlns="http://www.w3.org/2000/svg" width="40" height="41" viewBox="0 0 40 41">
  <g id="_01" data-name="01" transform="translate(-8.5 -7)">
    <rect id="Прямоугольник_800" data-name="Прямоугольник 800" width="40" height="41" rx="5" transform="translate(8.5 7)" fill="#779bff"/>
    <g id="product" transform="translate(14.091 14.154)">
      <path id="Контур_11969" data-name="Контур 11969" d="M34.27,36.439H32.913a1.336,1.336,0,0,0-1.276-.98H30.19V31.917a.374.374,0,0,0-.182-.33l-10.218-5.9a.377.377,0,0,0-.379,0L9.19,31.587a.38.38,0,0,0-.19.33v11.8a.381.381,0,0,0,.191.33l10.222,5.9A.381.381,0,0,0,19.6,50a.4.4,0,0,0,.2-.051l5.379-3.1v2.243a1.615,1.615,0,0,0,1.628,1.619H34.27a1.624,1.624,0,0,0,1.639-1.619V38.083A1.645,1.645,0,0,0,34.27,36.439Zm-2.619-.218a.553.553,0,0,1,.553.553v.037a.553.553,0,0,1-.553.553H29.436a.553.553,0,0,1-.553-.553v-.037a.553.553,0,0,1,.553-.553ZM19.6,26.455l4.247,2.452-9.459,5.461-4.247-2.452Zm-.362,22.506L9.763,43.5V32.576l9.478,5.461ZM19.6,37.377l-4.449-2.568,9.459-5.461,4.449,2.568Zm5.575.706v7.885L20,48.961V38.038l9.424-5.461v2.882h.012a1.336,1.336,0,0,0-1.276.98H26.806A1.636,1.636,0,0,0,25.178,38.083Zm9.968,11.009a.86.86,0,0,1-.876.856H26.806a.851.851,0,0,1-.866-.856V38.083a.873.873,0,0,1,.866-.881h1.372a1.3,1.3,0,0,0,1.261.926h2.2A1.3,1.3,0,0,0,32.9,37.2H34.27a.882.882,0,0,1,.876.881Z" transform="translate(-9 -25.634)" fill="#fff"/>
      <path id="Контур_11970" data-name="Контур 11970" d="M337.378,280.56h.4a.381.381,0,0,0,0-.763h-.015v-1.035h1.052a.367.367,0,0,0,.363.258.382.382,0,0,0,.383-.38v-.257a.386.386,0,0,0-.385-.383h-1.8a.381.381,0,0,0-.378.383v1.8a.379.379,0,0,0,.378.381Z" transform="translate(-319.133 -264.253)" fill="#fff"/>
      <path id="Контур_11971" data-name="Контур 11971" d="M337.381,344.56h1.8a.381.381,0,0,0,.381-.381v-1.8a.381.381,0,0,0-.381-.381h-1.8a.381.381,0,0,0-.381.381v1.8A.381.381,0,0,0,337.381,344.56Zm.381-1.8H338.8V343.8h-1.035Z" transform="translate(-319.133 -324.767)" fill="#fff"/>
      <path id="Контур_11972" data-name="Контур 11972" d="M337.777,407.8h-.015v-1.035h1.031a.383.383,0,1,0,.767,0V406.4a.4.4,0,0,0-.385-.4h-1.8a.392.392,0,0,0-.378.4v1.8a.368.368,0,0,0,.378.368h.4a.381.381,0,1,0,0-.763Z" transform="translate(-319.133 -385.281)" fill="#fff"/>
      <path id="Контур_11973" data-name="Контур 11973" d="M356.462,284.651l-1.117,1.117-.34-.34a.381.381,0,1,0-.539.539l.609.609a.381.381,0,0,0,.539,0L357,285.19a.381.381,0,0,0-.539-.539Z" transform="translate(-335.543 -270.436)" fill="#fff"/>
      <path id="Контур_11974" data-name="Контур 11974" d="M356.462,413.9l-1.117,1.117-.34-.34a.381.381,0,1,0-.539.539l.609.609a.381.381,0,0,0,.539,0L357,414.439a.381.381,0,1,0-.539-.539Z" transform="translate(-335.543 -392.644)" fill="#fff"/>
      <path id="Контур_11975" data-name="Контур 11975" d="M416.667,295h-2.395a.381.381,0,1,0,0,.763h2.395a.381.381,0,1,0,0-.763Z" transform="translate(-391.836 -280.327)" fill="#fff"/>
      <path id="Контур_11976" data-name="Контур 11976" d="M416.667,359h-2.395a.381.381,0,1,0,0,.763h2.395a.381.381,0,1,0,0-.763Z" transform="translate(-391.836 -340.841)" fill="#fff"/>
      <path id="Контур_11977" data-name="Контур 11977" d="M416.667,423h-2.395a.381.381,0,0,0,0,.763h2.395a.381.381,0,0,0,0-.763Z" transform="translate(-391.836 -401.355)" fill="#fff"/>
    </g>
  </g>
</svg>
