<svg xmlns="http://www.w3.org/2000/svg" width="40" height="41" viewBox="0 0 40 41">
  <g id="_02" data-name="02" transform="translate(-8.01 -7)">
    <rect id="Прямоугольник_799" data-name="Прямоугольник 799" width="40" height="41" rx="5" transform="translate(8.01 7)" fill="#ff9077"/>
    <g id="product_1_" data-name="product (1)" transform="translate(12.749 12)">
      <g id="Сгруппировать_3154" data-name="Сгруппировать 3154" transform="translate(7.418 4.52)">
        <g id="Сгруппировать_3153" data-name="Сгруппировать 3153">
          <path id="Контур_11978" data-name="Контур 11978" d="M143.591,73.1H129.856a.618.618,0,0,0-.618.618v2.32a8.524,8.524,0,0,0-.859-.045,8.412,8.412,0,1,0,7.871,11.385h6.1a1.857,1.857,0,0,0,1.855-1.855v-11.8A.618.618,0,0,0,143.591,73.1Zm-13.117,1.237h1.237V85.524a1.846,1.846,0,0,0,.106.618h-.725a.619.619,0,0,1-.618-.618Zm-2.1,17.244a7.175,7.175,0,1,1,0-14.35,7.286,7.286,0,0,1,.859.051v8.241a1.857,1.857,0,0,0,1.855,1.855h3.818A7.171,7.171,0,0,1,128.379,91.582Zm14.594-6.058a.619.619,0,0,1-.618.618h-8.788a.619.619,0,0,1-.618-.618V74.338h10.025Z" transform="translate(-119.967 -73.101)" fill="#fff"/>
        </g>
      </g>
      <g id="Сгруппировать_3156" data-name="Сгруппировать 3156" transform="translate(22.38 8.183)">
        <g id="Сгруппировать_3155" data-name="Сгруппировать 3155">
          <path id="Контур_11979" data-name="Контур 11979" d="M367.364,132.339a.618.618,0,0,0-.618.618v1.134a1.795,1.795,0,1,1-3.59,0v-1.134a.618.618,0,1,0-1.237,0v1.134a3.032,3.032,0,0,0,6.063,0v-1.134A.618.618,0,0,0,367.364,132.339Z" transform="translate(-361.919 -132.339)" fill="#fff"/>
        </g>
      </g>
      <g id="Сгруппировать_3158" data-name="Сгруппировать 3158" transform="translate(24.793 0)">
        <g id="Сгруппировать_3157" data-name="Сгруппировать 3157">
          <path id="Контур_11980" data-name="Контур 11980" d="M401.55.008a.618.618,0,0,0-.618.618V2.313a.618.618,0,0,0,1.237,0V.626A.618.618,0,0,0,401.55.008Z" transform="translate(-400.932 -0.008)" fill="#fff"/>
        </g>
      </g>
      <g id="Сгруппировать_3160" data-name="Сгруппировать 3160" transform="translate(27.013 1.397)">
        <g id="Сгруппировать_3159" data-name="Сгруппировать 3159">
          <path id="Контур_11981" data-name="Контур 11981" d="M438.918,22.787a.618.618,0,0,0-.875,0l-1.029,1.029a.618.618,0,1,0,.875.875l1.029-1.029A.618.618,0,0,0,438.918,22.787Z" transform="translate(-436.833 -22.606)" fill="#fff"/>
        </g>
      </g>
      <g id="Сгруппировать_3162" data-name="Сгруппировать 3162" transform="translate(21.544 1.395)">
        <g id="Сгруппировать_3161" data-name="Сгруппировать 3161">
          <path id="Контур_11982" data-name="Контур 11982" d="M350.49,23.784l-1.029-1.029a.618.618,0,1,0-.875.875l1.029,1.029a.618.618,0,0,0,.875-.875Z" transform="translate(-348.405 -22.573)" fill="#fff"/>
        </g>
      </g>
      <g id="Сгруппировать_3164" data-name="Сгруппировать 3164" transform="translate(0 4.52)">
        <g id="Сгруппировать_3163" data-name="Сгруппировать 3163">
          <path id="Контур_11983" data-name="Контур 11983" d="M25.5,89.172a.618.618,0,0,0-.843.233A10.149,10.149,0,1,1,14.648,74.334a.618.618,0,0,0-.143-1.229A11.373,11.373,0,0,0,6.349,90.689L.181,96.857a.618.618,0,1,0,.875.875l4.05-4.05L6.56,95.135l-4.05,4.05a.618.618,0,1,0,.875.875l6.168-6.168a11.372,11.372,0,0,0,16.18-3.876A.618.618,0,0,0,25.5,89.172ZM7.434,94.261,5.98,92.807,7.1,91.691a11.474,11.474,0,0,0,1.454,1.454Z" transform="translate(0 -73.101)" fill="#fff"/>
        </g>
      </g>
      <g id="Сгруппировать_3166" data-name="Сгруппировать 3166" transform="translate(10.576 17.26)">
        <g id="Сгруппировать_3165" data-name="Сгруппировать 3165">
          <path id="Контур_11984" data-name="Контур 11984" d="M176.278,282.149a4.457,4.457,0,0,1-4.071-2.648.618.618,0,0,0-1.131.5,5.7,5.7,0,0,0,5.2,3.384.618.618,0,1,0,0-1.237Z" transform="translate(-171.023 -279.133)" fill="#fff"/>
        </g>
      </g>
      <g id="Сгруппировать_3168" data-name="Сгруппировать 3168" transform="translate(10.143 15.207)">
        <g id="Сгруппировать_3167" data-name="Сгруппировать 3167">
          <path id="Контур_11985" data-name="Контур 11985" d="M164.641,245.932a.618.618,0,0,0-.618.618v.023a.618.618,0,0,0,.618.616h0a.618.618,0,0,0,.616-.621v-.017A.618.618,0,0,0,164.641,245.932Z" transform="translate(-164.023 -245.932)" fill="#fff"/>
        </g>
      </g>
    </g>
  </g>
</svg>
