<svg xmlns="http://www.w3.org/2000/svg" width="40" height="41" viewBox="0 0 40 41">
  <g id="_04" data-name="04" transform="translate(-19.8)">
    <g id="Сгруппировать_3176" data-name="Сгруппировать 3176" transform="translate(20)">
      <rect id="Прямоугольник_804" data-name="Прямоугольник 804" width="40" height="41" rx="5" transform="translate(-0.2)" fill="#059f95"/>
      <g id="history" transform="translate(5.032 7)">
        <path id="Контур_11992" data-name="Контур 11992" d="M275.484,172.228l0,6.509a.929.929,0,0,0,.273.658l4.656,4.655,1.316-1.316-4.384-4.383,0-6.123Z" transform="translate(-260.6 -164.785)" fill="#fff"/>
        <path id="Контур_11993" data-name="Контур 11993" d="M16.746,34.445A13.034,13.034,0,0,0,3.87,45.609H0l4.652,4.652L9.3,45.609H5.75a11.145,11.145,0,1,1,2.192,8.727L6.476,55.481a13.025,13.025,0,1,0,10.27-21.036Z" transform="translate(0 -34.445)" fill="#fff"/>
      </g>
    </g>
  </g>
</svg>
