<svg id="_1" data-name="1" xmlns="http://www.w3.org/2000/svg" width="40.974" height="40.974" viewBox="0 0 40.974 40.974">
  <path id="Контур_11858" data-name="Контур 11858" d="M33.291,40.974H7.683A7.682,7.682,0,0,1,0,33.291V7.683A7.682,7.682,0,0,1,7.683,0H33.291a7.682,7.682,0,0,1,7.683,7.683V33.291A7.682,7.682,0,0,1,33.291,40.974Z" fill="#ffe6e2"/>
  <g id="Сгруппировать_3062" data-name="Сгруппировать 3062" transform="translate(10.243 19.195)">
    <path id="Контур_11859" data-name="Контур 11859" d="M21.707,19.406A1.707,1.707,0,1,1,23.414,17.7,1.709,1.709,0,0,1,21.707,19.406Z" transform="translate(-4.635 -14.71)" fill="#fc573b"/>
    <path id="Контур_11860" data-name="Контур 11860" d="M11.041,19.406A1.707,1.707,0,1,1,12.748,17.7,1.709,1.709,0,0,1,11.041,19.406Z" transform="translate(-7.626 -14.71)" fill="#fc573b"/>
    <path id="Контур_11861" data-name="Контур 11861" d="M16.561,20.113a2.561,2.561,0,1,1,2.561-2.561A2.563,2.563,0,0,1,16.561,20.113Z" transform="translate(-6.317 -14.991)" fill="#fc573b"/>
    <path id="Контур_11862" data-name="Контур 11862" d="M21.083,24.26H12.974a.64.64,0,0,1-.64-.64v-1.28a2.349,2.349,0,0,1,2.347-2.347h4.7a2.349,2.349,0,0,1,2.347,2.347v1.28A.64.64,0,0,1,21.083,24.26Z" transform="translate(-6.785 -13.589)" fill="#fc573b"/>
    <path id="Контур_11863" data-name="Контур 11863" d="M22.8,19.325H20.668a2.261,2.261,0,0,0-.768.128,4.083,4.083,0,0,1,1.408,3.287h3.2a.645.645,0,0,0,.64-.64v-.426A2.346,2.346,0,0,0,22.8,19.325Z" transform="translate(-4.663 -13.776)" fill="#fc573b"/>
    <path id="Контур_11864" data-name="Контур 11864" d="M12.481,19.325H10.347A2.346,2.346,0,0,0,8,21.672V22.1a.645.645,0,0,0,.64.64h3.2a4.085,4.085,0,0,1,1.408-3.287A2.292,2.292,0,0,0,12.481,19.325Z" transform="translate(-8 -13.776)" fill="#fc573b"/>
  </g>
  <path id="Контур_11865" data-name="Контур 11865" d="M19.9,15.482H13.976a.641.641,0,0,1-.63-.522L12.678,11.4a.64.64,0,0,1,.889-.7L15,11.336l1.38-2.366a.666.666,0,0,1,1.106,0l1.38,2.366L20.3,10.7a.64.64,0,0,1,.889.7l-.668,3.557A.636.636,0,0,1,19.9,15.482Z" transform="translate(3.552 2.433)" fill="#fd907e"/>
</svg>
