<svg xmlns="http://www.w3.org/2000/svg" width="40.974" height="40.974" viewBox="0 0 40.974 40.974">
  <g id="_2" data-name="2" transform="translate(-28.949 -121)">
    <path id="Контур_11858" data-name="Контур 11858" d="M33.291,40.974H7.683A7.682,7.682,0,0,1,0,33.291V7.683A7.682,7.682,0,0,1,7.683,0H33.291a7.682,7.682,0,0,1,7.683,7.683V33.291A7.682,7.682,0,0,1,33.291,40.974Z" transform="translate(28.949 121)" fill="#e2f1ff"/>
    <g id="network_1_" data-name="network (1)" transform="translate(34.949 127.047)">
      <g id="Сгруппировать_3064" data-name="Сгруппировать 3064" transform="translate(4.218 8.908)">
        <g id="Сгруппировать_3063" data-name="Сгруппировать 3063">
          <circle id="Эллипс_500" data-name="Эллипс 500" cx="0.937" cy="0.937" r="0.937" fill="#009ebf"/>
        </g>
      </g>
      <g id="Сгруппировать_3066" data-name="Сгруппировать 3066" transform="translate(3.281 13.594)">
        <g id="Сгруппировать_3065" data-name="Сгруппировать 3065">
          <path id="Контур_11866" data-name="Контур 11866" d="M62.985,247.479H60.266a.5.5,0,0,0-.515.476v1.978a5.086,5.086,0,0,0,3.749,0v-1.978A.5.5,0,0,0,62.985,247.479Z" transform="translate(-59.751 -247.479)" fill="#009ebf"/>
        </g>
      </g>
      <g id="Сгруппировать_3068" data-name="Сгруппировать 3068" transform="translate(15.465 2.816)">
        <g id="Сгруппировать_3067" data-name="Сгруппировать 3067">
          <circle id="Эллипс_501" data-name="Эллипс 501" cx="0.937" cy="0.937" r="0.937" fill="#009ebf"/>
        </g>
      </g>
      <g id="Сгруппировать_3070" data-name="Сгруппировать 3070" transform="translate(14.528 7.502)">
        <g id="Сгруппировать_3069" data-name="Сгруппировать 3069">
          <path id="Контур_11867" data-name="Контур 11867" d="M267.785,136.546h-2.719a.5.5,0,0,0-.515.476V139a5.086,5.086,0,0,0,3.749,0v-1.978A.5.5,0,0,0,267.785,136.546Z" transform="translate(-264.551 -136.546)" fill="#009ebf"/>
        </g>
      </g>
      <g id="Сгруппировать_3072" data-name="Сгруппировать 3072" transform="translate(21.557 15)">
        <g id="Сгруппировать_3071" data-name="Сгруппировать 3071">
          <circle id="Эллипс_502" data-name="Эллипс 502" cx="0.937" cy="0.937" r="0.937" fill="#009ebf"/>
        </g>
      </g>
      <g id="Сгруппировать_3074" data-name="Сгруппировать 3074" transform="translate(20.62 19.686)">
        <g id="Сгруппировать_3073" data-name="Сгруппировать 3073">
          <path id="Контур_11868" data-name="Контур 11868" d="M378.718,358.413H376a.5.5,0,0,0-.515.476v1.978a5.086,5.086,0,0,0,3.749,0v-1.978A.5.5,0,0,0,378.718,358.413Z" transform="translate(-375.484 -358.413)" fill="#009ebf"/>
        </g>
      </g>
      <g id="Сгруппировать_3076" data-name="Сгруппировать 3076" transform="translate(0 0.004)">
        <g id="Сгруппировать_3075" data-name="Сгруппировать 3075" transform="translate(0 0)">
          <path id="Контур_11869" data-name="Контур 11869" d="M22.494,12.188c-.063,0-.124.007-.186.009L20.321,8.5a5.118,5.118,0,0,0,1.222-3.066l2.948,1.423a1.854,1.854,0,0,0-.122.649,1.874,1.874,0,1,0,1.874-1.874,1.857,1.857,0,0,0-1.2.45L21.488,4.363a5.152,5.152,0,0,0-10.146-.2,5.392,5.392,0,0,0-.089.778L8.476,7.314A5.128,5.128,0,0,0,5.624,6.12V3.686a1.874,1.874,0,1,0-.937,0V6.12a5.149,5.149,0,0,0-2.343,9.446v-1.5A1.435,1.435,0,0,1,3.8,12.657H6.515A1.435,1.435,0,0,1,7.967,14.07v1.5a5.16,5.16,0,0,0,2.256-3.423l2.115,1.649a1.914,1.914,0,1,0,.58-.737L10.3,11.012a5.125,5.125,0,0,0-1.16-3.03l2.2-1.881A5.167,5.167,0,0,0,13.59,9.473v-1.5a1.435,1.435,0,0,1,1.452-1.413h2.719a1.435,1.435,0,0,1,1.452,1.413v.491a.476.476,0,0,0,.263.426l1.844,3.434a5.16,5.16,0,0,0-3.98,5.015A5.1,5.1,0,0,0,17.625,19l-1.9,1.423A5.15,5.15,0,0,0,6.116,22.5H3.682a1.874,1.874,0,1,0,0,.937h2.44a5.153,5.153,0,0,0,2.313,3.846v-1.5a1.435,1.435,0,0,1,1.452-1.413h2.719a1.435,1.435,0,0,1,1.452,1.413v1.5a5.166,5.166,0,0,0,2.206-3.166L19.336,25.6a1.854,1.854,0,0,0-.122.649,1.874,1.874,0,1,0,1.874-1.874,1.857,1.857,0,0,0-1.2.45l-3.493-1.687c0-.057.011-.112.011-.169a5.125,5.125,0,0,0-.281-1.664l1.894-1.42a5.2,5.2,0,0,0,1.668,1.776v-1.5a1.435,1.435,0,0,1,1.452-1.413h2.719a1.435,1.435,0,0,1,1.452,1.413v1.5a5.151,5.151,0,0,0-2.812-9.469ZM5.156,11.72A1.874,1.874,0,1,1,7.03,9.845,1.876,1.876,0,0,1,5.156,11.72ZM16.4,5.628a1.874,1.874,0,1,1,1.874-1.874A1.876,1.876,0,0,1,16.4,5.628ZM11.248,23.435a1.874,1.874,0,1,1,1.874-1.874A1.876,1.876,0,0,1,11.248,23.435Zm11.247-5.623a1.874,1.874,0,1,1,1.874-1.874A1.876,1.876,0,0,1,22.494,17.812Z" transform="translate(0 -0.004)" fill="#009ebf"/>
        </g>
      </g>
      <g id="Сгруппировать_3078" data-name="Сгруппировать 3078" transform="translate(10.31 20.623)">
        <g id="Сгруппировать_3077" data-name="Сгруппировать 3077">
          <circle id="Эллипс_503" data-name="Эллипс 503" cx="0.937" cy="0.937" r="0.937" fill="#009ebf"/>
        </g>
      </g>
      <g id="Сгруппировать_3080" data-name="Сгруппировать 3080" transform="translate(9.373 25.309)">
        <g id="Сгруппировать_3079" data-name="Сгруппировать 3079">
          <path id="Контур_11870" data-name="Контур 11870" d="M173.918,460.813H171.2a.5.5,0,0,0-.515.476v1.978a5.086,5.086,0,0,0,3.749,0v-1.978A.5.5,0,0,0,173.918,460.813Z" transform="translate(-170.684 -460.813)" fill="#009ebf"/>
        </g>
      </g>
    </g>
  </g>
</svg>
