<svg xmlns="http://www.w3.org/2000/svg" width="40.974" height="40.974" viewBox="0 0 40.974 40.974">
  <g id="_3" data-name="3" transform="translate(-28.897 -121)">
    <g id="group_1_" data-name="group (1)" transform="translate(28.897 121)">
      <path id="Контур_11858" data-name="Контур 11858" d="M33.291,40.974H7.683A7.682,7.682,0,0,1,0,33.291V7.683A7.682,7.682,0,0,1,7.683,0H33.291a7.682,7.682,0,0,1,7.683,7.683V33.291A7.682,7.682,0,0,1,33.291,40.974Z" fill="#f2e2ff"/>
    </g>
    <g id="customer" transform="translate(28.897 124.406)">
      <path id="Контур_11871" data-name="Контур 11871" d="M11,55.986a.987.987,0,0,0,.986.986V55H11Z" transform="translate(-1.014 -26.364)" fill="#9a2f96"/>
      <path id="Контур_11872" data-name="Контур 11872" d="M27.022,31.11l.6-2.11h-.661l-1.331,1Z" transform="translate(-8.433 -13.182)" fill="#9a2f96"/>
      <path id="Контур_11873" data-name="Контур 11873" d="M23.916,12.119a.493.493,0,0,0-.432-.489l-2.163-.271a1.542,1.542,0,0,1-1.187-.842l-1.061.3A1.486,1.486,0,0,0,18,12.244v1.963a2.958,2.958,0,1,0,5.916,0Zm-4.437.608a.493.493,0,1,1-.493.493A.493.493,0,0,1,19.479,12.728Zm3.347,2.3a2.088,2.088,0,0,1-3.736,0l-.052-.1.882-.441.052.1a1.1,1.1,0,0,0,1.972,0l.052-.1.882.441Zm-.389-1.31a.493.493,0,1,1,.493-.493A.493.493,0,0,1,22.437,13.714Z" transform="translate(-4.563 -3.812)" fill="#9a2f96"/>
      <path id="Контур_11874" data-name="Контур 11874" d="M18.969,31.139l1.389-1.112-1.294-.97-.66.11Z" transform="translate(-4.768 -13.211)" fill="#9a2f96"/>
      <path id="Контур_11875" data-name="Контур 11875" d="M14.986,16.972h.034a3.967,3.967,0,0,1-.034-.493V15a.986.986,0,1,0,0,1.972Z" transform="translate(-2.535 -6.084)" fill="#9a2f96"/>
      <path id="Контур_11876" data-name="Контур 11876" d="M43.7,12.944h2.261V9.986a.986.986,0,0,0-1.972,0v.8l-.467.233a.941.941,0,0,0-.244,1.506Z" transform="translate(-17.238 -3.042)" fill="#9a2f96"/>
      <path id="Контур_11877" data-name="Контур 11877" d="M45,19h1.972v1.972H45Z" transform="translate(-18.252 -8.112)" fill="#9a2f96"/>
      <path id="Контур_11878" data-name="Контур 11878" d="M14.986,7.93h.059a2.474,2.474,0,0,1,1.729-1.868l1.2-.343a1.543,1.543,0,0,1,1.511-1.24h.431v.986h-.431a.554.554,0,0,0-.069,1.1l2.163.271a1.477,1.477,0,0,1,1.24,1.09h.055a1.965,1.965,0,0,1,.745.148l.048-.144A3.749,3.749,0,0,0,20.111,3H17.191a.726.726,0,0,0-.712.587l-.077.4h-.658a1.25,1.25,0,0,0-1.082,1.876l.225.391-.369.259a1.2,1.2,0,0,0-.349,1.6,1.948,1.948,0,0,1,.817-.183Z" transform="translate(-2.535)" fill="#9a2f96"/>
      <path id="Контур_11879" data-name="Контур 11879" d="M31.965,15v1.479a3.967,3.967,0,0,1-.034.493h.034a.986.986,0,1,0,0-1.972Z" transform="translate(-11.626 -6.084)" fill="#9a2f96"/>
      <path id="Контур_11880" data-name="Контур 11880" d="M23.718,25.639a3.954,3.954,0,0,1-2.346,0l-.242.966,1.414,1.06L23.96,26.6Z" transform="translate(-6.15 -11.478)" fill="#9a2f96"/>
      <path id="Контур_11881" data-name="Контур 11881" d="M39,34.367a.494.494,0,0,0,.493.493h6.9a.494.494,0,0,0,.493-.493V25H39Zm1.479-6.9h4.93v3.944h-4.93Z" transform="translate(-15.21 -11.154)" fill="#9a2f96"/>
      <path id="Контур_11882" data-name="Контур 11882" d="M15,53h3.944v3.944H15Z" transform="translate(-3.042 -25.35)" fill="#9a2f96"/>
      <path id="Контур_11883" data-name="Контур 11883" d="M12.658,29.61l-.775.129A3.44,3.44,0,0,0,9,33.143v8h1.972V33.253h.986v6.9H15.9V31.321l-2.243,1.794Z" transform="translate(0 -13.491)" fill="#9a2f96"/>
      <path id="Контур_11884" data-name="Контур 11884" d="M27.243,32.806,25,31.012v8.834h3.944V31.958h1.972V29H28.33Zm-.271,5.068h-.986v-.986h.986Zm0-1.972h-.986v-.986h.986Z" transform="translate(-8.112 -13.182)" fill="#9a2f96"/>
      <path id="Контур_11885" data-name="Контур 11885" d="M25,53h3.944v3.944H25Z" transform="translate(-8.112 -25.35)" fill="#9a2f96"/>
      <path id="Контур_11886" data-name="Контур 11886" d="M39.986,18.274a2.941,2.941,0,0,1,.551-1.713,1.911,1.911,0,0,1-.5-.938A3.925,3.925,0,0,0,39,18.274v.986h.986Z" transform="translate(-15.21 -6.4)" fill="#9a2f96"/>
      <path id="Контур_11887" data-name="Контур 11887" d="M51,14.082v1.212a2.948,2.948,0,0,1,.986,2.2v.986h.986v-.986A3.944,3.944,0,0,0,51,14.082Z" transform="translate(-21.294 -5.618)" fill="#9a2f96"/>
    </g>
  </g>
</svg>
