<svg xmlns="http://www.w3.org/2000/svg" width="21" height="21" viewBox="0 0 21 21">
  <g id="communication" transform="translate(-0.002)">
    <path id="Контур_11929" data-name="Контур 11929" d="M8.959,256.254a4.526,4.526,0,0,0-2.413-2.889,2.614,2.614,0,0,0,.675-1.756v-.984a2.625,2.625,0,0,0-5.25,0v.984a2.614,2.614,0,0,0,.676,1.756,4.529,4.529,0,0,0-2.414,2.889,4.258,4.258,0,0,0-.231.933c0,.92,1.242,1.231,1.65,1.333a14.212,14.212,0,0,0,5.887,0c.408-.1,1.65-.413,1.65-1.333A4.166,4.166,0,0,0,8.959,256.254Zm-5.676-4.645v-.984a1.312,1.312,0,0,1,2.625,0v.984a1.312,1.312,0,0,1-2.625,0ZM1.376,257.05l.123-.45a3.215,3.215,0,0,1,5.045-1.706,3.49,3.49,0,0,1,1.271,2.157,11.393,11.393,0,0,1-6.439,0Z" transform="translate(0 -237.828)" fill="#fff"/>
    <path id="Контур_11930" data-name="Контур 11930" d="M297.166,257.015a4.893,4.893,0,0,0-2.621-3.65,2.614,2.614,0,0,0,.675-1.756v-.984a2.625,2.625,0,1,0-5.25,0v.984a2.614,2.614,0,0,0,.676,1.756,4.529,4.529,0,0,0-2.414,2.889,4.262,4.262,0,0,0-.231.933c0,1.443,3.158,1.641,4.594,1.641s4.594-.2,4.594-1.641a.656.656,0,0,0-.023-.173Zm-5.883-5.405v-.984a1.312,1.312,0,1,1,2.625,0v.984a1.312,1.312,0,1,1-2.625,0Zm-1.907,5.441.123-.45a3.215,3.215,0,0,1,5.045-1.706,3.49,3.49,0,0,1,1.271,2.157A11.393,11.393,0,0,1,289.376,257.05Z" transform="translate(-276.188 -237.828)" fill="#fff"/>
    <path id="Контур_11931" data-name="Контур 11931" d="M145.652,10.52a14.212,14.212,0,0,0,5.887,0c.408-.1,1.65-.413,1.65-1.333a.656.656,0,0,0-.023-.173,4.894,4.894,0,0,0-2.621-3.65,2.614,2.614,0,0,0,.675-1.756V2.625a2.625,2.625,0,1,0-5.25,0v.984a2.614,2.614,0,0,0,.676,1.756,4.529,4.529,0,0,0-2.414,2.889,4.261,4.261,0,0,0-.231.933C144,10.107,145.244,10.418,145.652,10.52Zm1.631-6.911V2.625a1.313,1.313,0,0,1,2.625,0v.984a1.313,1.313,0,0,1-2.625,0ZM145.5,8.6a3.215,3.215,0,0,1,5.045-1.706,3.49,3.49,0,0,1,1.271,2.157,11.393,11.393,0,0,1-6.439,0Z" transform="translate(-138.094)" fill="#fff"/>
    <path id="Контур_11932" data-name="Контур 11932" d="M203.936,284.266a.657.657,0,0,0,.41-1.169l-1.394-1.115v-1.325a.656.656,0,0,0-1.312,0v1.325l-1.394,1.115a.656.656,0,1,0,.82,1.025l1.231-.985,1.231.985A.653.653,0,0,0,203.936,284.266Z" transform="translate(-191.794 -268.516)" fill="#fff"/>
  </g>
</svg>
