<svg xmlns="http://www.w3.org/2000/svg" width="21" height="18.406" viewBox="0 0 21 18.406">
  <g id="Galareya" transform="translate(0 -26.576)">
    <g id="Сгруппировать_3235" data-name="Сгруппировать 3235" transform="translate(0 26.576)">
      <g id="Сгруппировать_3234" data-name="Сгруппировать 3234" transform="translate(0 0)">
        <path id="Контур_12009" data-name="Контур 12009" d="M176.131,159.668a2.142,2.142,0,1,0,2.142,2.142A2.142,2.142,0,0,0,176.131,159.668Zm0,3.264a1.122,1.122,0,0,1,0-2.244h0a1.122,1.122,0,0,1,0,2.244Z" transform="translate(-165.496 -153.172)" fill="#fff"/>
        <path id="Контур_12010" data-name="Контур 12010" d="M19.178,28.176,5.254,26.595a1.912,1.912,0,0,0-1.5.434,1.938,1.938,0,0,0-.74,1.326l-.255,2.091H1.964A2.049,2.049,0,0,0,0,32.562v10.43a1.938,1.938,0,0,0,1.886,1.989H15.964a2.093,2.093,0,0,0,2.142-1.989v-.408a2.55,2.55,0,0,0,.969-.408,2.117,2.117,0,0,0,.74-1.377l1.173-10.354A2.066,2.066,0,0,0,19.178,28.176ZM17.086,42.992a1.074,1.074,0,0,1-1.122.969h-14a.918.918,0,0,1-.945-.891q0-.039,0-.078V41.1L4.973,38.2a1.224,1.224,0,0,1,1.581.076l2.78,2.448a2.4,2.4,0,0,0,1.5.561,2.321,2.321,0,0,0,1.224-.332l5.024-2.907v4.947Zm0-6.146-5.559,3.239a1.3,1.3,0,0,1-1.5-.127L7.217,37.484a2.27,2.27,0,0,0-2.831-.1L1.021,39.83V32.562a1.029,1.029,0,0,1,.944-1.1h14a1.173,1.173,0,0,1,1.122,1.1v4.284Zm2.883-6.538v.01l-1.2,10.354a.867.867,0,0,1-.332.689c-.1.1-.332.153-.332.2v-9a2.193,2.193,0,0,0-2.142-2.117H3.775L4,28.456a1.173,1.173,0,0,1,.383-.663,1.173,1.173,0,0,1,.765-.2L19.05,29.2A1.02,1.02,0,0,1,19.969,30.308Z" transform="translate(0 -26.576)" fill="#fff"/>
      </g>
    </g>
  </g>
</svg>
