<svg xmlns="http://www.w3.org/2000/svg" width="25" height="27.505" viewBox="0 0 25 27.505">
  <g id="Icon_feather-box" data-name="Icon feather-box" transform="translate(-4 -2.801)">
    <g id="Group_3243" data-name="Group 3243" transform="translate(0 0.331)">
      <path id="Path_11686" data-name="Path 11686" d="M28.5,21.512V10.934a2.641,2.641,0,0,0-1.333-2.288L17.833,3.357a2.686,2.686,0,0,0-2.667,0L5.833,8.646A2.641,2.641,0,0,0,4.5,10.934V21.512A2.641,2.641,0,0,0,5.833,23.8l9.333,5.289a2.686,2.686,0,0,0,2.667,0L27.167,23.8A2.641,2.641,0,0,0,28.5,21.512Z" transform="translate(0)" fill="none" stroke="#fff" stroke-linecap="round" stroke-linejoin="round" stroke-width="1"/>
      <path id="Path_11687" data-name="Path 11687" d="M4.905,10.44l11.64,6.733,11.64-6.733" transform="translate(-0.045 -0.9)" fill="none" stroke="#fff" stroke-linecap="round" stroke-linejoin="round" stroke-width="1"/>
    </g>
    <path id="Path_11688" data-name="Path 11688" d="M18,31.44V18" transform="translate(-1.5 -1.666)" fill="none" stroke="#fff" stroke-linecap="round" stroke-linejoin="round" stroke-width="1"/>
  </g>
</svg>
