<svg id="information" xmlns="http://www.w3.org/2000/svg" width="24.051" height="24.051" viewBox="0 0 24.051 24.051">
  <path id="Path_11509" data-name="Path 11509" d="M12.025,0A12.025,12.025,0,1,0,24.051,12.025,12.039,12.039,0,0,0,12.025,0Zm0,21.864a9.839,9.839,0,1,1,9.839-9.839A9.85,9.85,0,0,1,12.025,21.864Z" fill="#fff"/>
  <path id="Path_11510" data-name="Path 11510" d="M146.459,70a1.458,1.458,0,1,0,1.457,1.458A1.459,1.459,0,0,0,146.459,70Z" transform="translate(-134.434 -64.898)" fill="#fff"/>
  <path id="Path_11511" data-name="Path 11511" d="M151.093,140A1.093,1.093,0,0,0,150,141.093v6.559a1.093,1.093,0,0,0,2.186,0v-6.559A1.093,1.093,0,0,0,151.093,140Z" transform="translate(-139.068 -129.797)" fill="#fff"/>
</svg>
