<svg id="M_jo_natish" data-name="M jo&apos;natish" xmlns="http://www.w3.org/2000/svg" width="21" height="21" viewBox="0 0 21 21">
  <g id="Сгруппировать_3236" data-name="Сгруппировать 3236" transform="translate(7.437 6.563)">
    <g id="Сгруппировать_3235" data-name="Сгруппировать 3235">
      <rect id="Прямоугольник_892" data-name="Прямоугольник 892" width="6.125" height="0.875" fill="#fff"/>
    </g>
  </g>
  <g id="Сгруппировать_3238" data-name="Сгруппировать 3238">
    <g id="Сгруппировать_3237" data-name="Сгруппировать 3237">
      <path id="Контур_12009" data-name="Контур 12009" d="M18.813,0H2.187A2.19,2.19,0,0,0,0,2.187V18.812A2.19,2.19,0,0,0,2.187,21h7.875v-.875H2.187A1.313,1.313,0,0,1,.875,18.813V2.187A1.313,1.313,0,0,1,2.187.875H18.812a1.313,1.313,0,0,1,1.313,1.313V9.625H21V2.187A2.19,2.19,0,0,0,18.813,0Z" fill="#fff"/>
    </g>
  </g>
  <g id="Сгруппировать_3240" data-name="Сгруппировать 3240" transform="translate(13.125 1.75)">
    <g id="Сгруппировать_3239" data-name="Сгруппировать 3239">
      <rect id="Прямоугольник_893" data-name="Прямоугольник 893" width="0.875" height="6.125" fill="#fff"/>
    </g>
  </g>
  <g id="Сгруппировать_3242" data-name="Сгруппировать 3242" transform="translate(7 1.75)">
    <g id="Сгруппировать_3241" data-name="Сгруппировать 3241">
      <path id="Контур_12010" data-name="Контур 12010" d="M171.542,49.667h0v-7h-.875v7a.875.875,0,0,0,.875.875h2.187v-.875Z" transform="translate(-170.667 -42.667)" fill="#fff"/>
    </g>
  </g>
  <g id="Сгруппировать_3244" data-name="Сгруппировать 3244" transform="translate(2.625 14.875)">
    <g id="Сгруппировать_3243" data-name="Сгруппировать 3243">
      <path id="Контур_12011" data-name="Контур 12011" d="M67.063,362.667H64.438A.438.438,0,0,0,64,363.1v2.625a.438.438,0,0,0,.438.438h2.625a.438.438,0,0,0,.438-.438V363.1A.438.438,0,0,0,67.063,362.667Zm-.438,2.625h-1.75v-1.75h1.75Z" transform="translate(-64 -362.667)" fill="#fff"/>
    </g>
  </g>
  <g id="Сгруппировать_3246" data-name="Сгруппировать 3246" transform="translate(8.75 8.75)">
    <g id="Сгруппировать_3245" data-name="Сгруппировать 3245">
      <path id="Контур_12012" data-name="Контур 12012" d="M219.459,213.333a6.125,6.125,0,1,0,6.125,6.125A6.125,6.125,0,0,0,219.459,213.333Zm0,11.375a5.25,5.25,0,1,1,5.25-5.25A5.25,5.25,0,0,1,219.459,224.708Z" transform="translate(-213.334 -213.333)" fill="#fff"/>
    </g>
  </g>
  <g id="Сгруппировать_3248" data-name="Сгруппировать 3248" transform="translate(12.378 11.375)">
    <g id="Сгруппировать_3247" data-name="Сгруппировать 3247">
      <path id="Контур_12013" data-name="Контур 12013" d="M304.6,277.464a.438.438,0,0,0-.619,0l-2.187,2.188.619.619,1.878-1.878,1.878,1.878.619-.619Z" transform="translate(-301.792 -277.336)" fill="#fff"/>
    </g>
  </g>
  <g id="Сгруппировать_3250" data-name="Сгруппировать 3250" transform="translate(12.688 11.813)">
    <g id="Сгруппировать_3249" data-name="Сгруппировать 3249">
      <path id="Контур_12014" data-name="Контур 12014" d="M311.959,293.25V288h-.875v5.245a.4.4,0,0,1-.437.443h-1.312v.875h1.387A1.276,1.276,0,0,0,311.959,293.25Z" transform="translate(-309.334 -288)" fill="#fff"/>
    </g>
  </g>
</svg>
