<svg xmlns="http://www.w3.org/2000/svg" width="21" height="19.57" viewBox="0 0 21 19.57">
  <g id="M_jo_natilgan" data-name="M jo&apos;natilgan" transform="translate(-9 -25.634)">
    <path id="Контур_12015" data-name="Контур 12015" d="M28.721,34.066H27.662a1.043,1.043,0,0,0-1-.765h-1.13V30.537a.292.292,0,0,0-.142-.258L17.42,25.674a.294.294,0,0,0-.3,0L9.148,30.279A.3.3,0,0,0,9,30.537v9.211a.3.3,0,0,0,.149.258l7.977,4.606a.3.3,0,0,0,.149.04.313.313,0,0,0,.153-.04l4.2-2.421v1.75A1.26,1.26,0,0,0,22.9,45.2h5.825A1.267,1.267,0,0,0,30,43.941V35.349a1.284,1.284,0,0,0-1.279-1.283Zm-2.044-.17a.432.432,0,0,1,.432.432v.029a.432.432,0,0,1-.432.432H24.948a.432.432,0,0,1-.432-.432v-.029a.432.432,0,0,1,.432-.432Zm-9.4-7.621,3.315,1.914L13.208,32.45,9.893,30.537Zm-.283,17.564L9.6,39.577V31.052l7.4,4.262Zm.283-9.04-3.472-2,7.382-4.262,3.472,2Zm4.351.551V41.5l-4.038,2.335V35.314l7.354-4.262V33.3h.009a1.043,1.043,0,0,0-1,.765H22.9A1.277,1.277,0,0,0,21.625,35.349ZM29.4,43.941a.671.671,0,0,1-.684.668H22.9a.664.664,0,0,1-.676-.668V35.349a.681.681,0,0,1,.676-.688h1.07a1.018,1.018,0,0,0,.984.723h1.716a1.018,1.018,0,0,0,.984-.723h1.071a.688.688,0,0,1,.684.688Z" transform="translate(0 0)" fill="#fff"/>
    <path id="Контур_12016" data-name="Контур 12016" d="M337.3,280h.311a.3.3,0,0,0,0-.6H337.6V278.6h.821a.286.286,0,0,0,.283.2.3.3,0,0,0,.3-.3v-.2a.3.3,0,0,0-.3-.3h-1.4a.3.3,0,0,0-.3.3v1.4a.3.3,0,0,0,.3.3Z" transform="translate(-314.057 -241.638)" fill="#fff"/>
    <path id="Контур_12017" data-name="Контур 12017" d="M337.3,344h1.4a.3.3,0,0,0,.3-.3v-1.4a.3.3,0,0,0-.3-.3h-1.4a.3.3,0,0,0-.3.3v1.4A.3.3,0,0,0,337.3,344Zm.3-1.4h.808v.808H337.6Z" transform="translate(-314.057 -302.917)" fill="#fff"/>
    <path id="Контур_12018" data-name="Контур 12018" d="M337.606,407.4h-.012V406.6h.8a.3.3,0,1,0,.6,0v-.287a.31.31,0,0,0-.3-.309h-1.4a.306.306,0,0,0-.3.309v1.4a.287.287,0,0,0,.3.287h.311a.3.3,0,0,0,0-.6Z" transform="translate(-314.056 -364.197)" fill="#fff"/>
    <path id="Контур_12019" data-name="Контур 12019" d="M356,284.626l-.871.871-.265-.265a.3.3,0,1,0-.421.421l.476.476a.3.3,0,0,0,.421,0l1.082-1.082a.3.3,0,1,0-.421-.421Z" transform="translate(-330.674 -247.899)" fill="#fff"/>
    <path id="Контур_12020" data-name="Контур 12020" d="M356,413.875l-.871.871-.265-.265a.3.3,0,1,0-.421.421l.476.475a.3.3,0,0,0,.421,0l1.082-1.082a.3.3,0,1,0-.421-.421Z" transform="translate(-330.674 -371.653)" fill="#fff"/>
    <path id="Контур_12021" data-name="Контур 12021" d="M416.058,295h-1.869a.3.3,0,0,0,0,.6h1.869a.3.3,0,0,0,0-.6Z" transform="translate(-387.679 -257.915)" fill="#fff"/>
    <path id="Контур_12022" data-name="Контур 12022" d="M416.058,359h-1.869a.3.3,0,0,0,0,.6h1.869a.3.3,0,0,0,0-.6Z" transform="translate(-387.679 -319.195)" fill="#fff"/>
    <path id="Контур_12023" data-name="Контур 12023" d="M416.058,423h-1.869a.3.3,0,1,0,0,.6h1.869a.3.3,0,1,0,0-.6Z" transform="translate(-387.679 -380.474)" fill="#fff"/>
  </g>
</svg>
