<svg xmlns="http://www.w3.org/2000/svg" width="21.331" height="18.727" viewBox="0 0 21.331 18.727">
  <g id="Mahsulotlar" transform="translate(0.15 0.049)">
    <path id="Контур_12011" data-name="Контур 12011" d="M20.953,13.261a1.391,1.391,0,0,0-1.135-1.008V4.274h.7a.348.348,0,0,0,.348-.348V.449A.348.348,0,0,0,20.513.1H5.215a.348.348,0,0,0-.348.348V3.926a.348.348,0,0,0,.348.348h.7v6.954H5.563a4.477,4.477,0,0,0-2.434.712V10.184a.348.348,0,0,0-.348-.348H.348A.348.348,0,0,0,0,10.184v8a.348.348,0,0,0,.348.348H2.781a.348.348,0,0,0,.348-.348V16.425a4.482,4.482,0,0,0,2.434.712h5.709a4.578,4.578,0,0,0,1.171-.154l7.528-2.016a1.4,1.4,0,0,0,.982-1.706ZM5.563.8h14.6V3.578H5.563ZM6.606,4.274H19.122v8.04L15.087,13.4a1.4,1.4,0,0,0-.92-.807L9.483,11.331a3.16,3.16,0,0,0-.808-.1H6.606ZM2.434,17.833H.7v-7.3H2.434ZM19.79,14.295l-7.526,2.016a3.87,3.87,0,0,1-.992.131H5.563a3.8,3.8,0,0,1-2.295-.765l-.139-.1V12.792l.139-.1a3.8,3.8,0,0,1,2.295-.765H8.675A2.457,2.457,0,0,1,9.3,12l4.683,1.255a.7.7,0,0,1,.511.6.339.339,0,0,0,.014.042.343.343,0,0,0-.009.045.592.592,0,0,1-.023.167.7.7,0,0,1-.67.514.686.686,0,0,1-.181-.023l-2.955-.792a.348.348,0,1,0-.18.671l2.955.793a1.414,1.414,0,0,0,.362.047A1.388,1.388,0,0,0,15.148,14.3a1.245,1.245,0,0,0,.039-.213l4.238-1.137c.03-.008.063-.015.094-.021a.7.7,0,0,1,.761.511.679.679,0,0,1,.023.18.7.7,0,0,1-.514.672Zm0,0" fill="#fff" stroke="#fff" stroke-width="0.3"/>
    <path id="Контур_12012" data-name="Контур 12012" d="M248.348,112.8h3.477a.348.348,0,0,0,0-.7h-3.477a.348.348,0,1,0,0,.7Zm0,0" transform="translate(-237.222 -107.133)" fill="#fff" stroke="#fff" stroke-width="0.3"/>
  </g>
</svg>
