<svg xmlns="http://www.w3.org/2000/svg" width="21.3" height="19.575" viewBox="0 0 21.3 19.575">
  <g id="Mijozlar_fikri" data-name="Mijozlar fikri" transform="translate(0.15 -2.315)">
    <path id="Контур_12013" data-name="Контур 12013" d="M9.35,24.165H13.9a.35.35,0,1,0,0-.7H9.35a.35.35,0,1,0,0,.7Z" transform="translate(-5.85 -13.65)" fill="#fff" stroke="#fff" stroke-width="0.3"/>
    <path id="Контур_12014" data-name="Контур 12014" d="M18.45,29.465H9.35a.35.35,0,1,0,0,.7h9.1a.35.35,0,1,0,0-.7Z" transform="translate(-5.85 -17.55)" fill="#fff" stroke="#fff" stroke-width="0.3"/>
    <path id="Контур_12015" data-name="Контур 12015" d="M18.45,35.465H9.35a.35.35,0,1,0,0,.7h9.1a.35.35,0,1,0,0-.7Z" transform="translate(-5.85 -21.45)" fill="#fff" stroke="#fff" stroke-width="0.3"/>
    <path id="Контур_12016" data-name="Контур 12016" d="M18.925,2.49,6.976,2.465A2.078,2.078,0,0,0,4.9,4.54V6.334L2.076,6.34A2.078,2.078,0,0,0,0,8.415v7.4A2.077,2.077,0,0,0,2.076,17.89H4.2v3.5a.35.35,0,0,0,.609.236l3.4-3.736,5.819-.024A2.078,2.078,0,0,0,16.1,15.79v-.04l1.841,2.025a.35.35,0,0,0,.609-.236v-3.5h.375A2.078,2.078,0,0,0,21,11.965v-7.4A2.078,2.078,0,0,0,18.925,2.49ZM15.4,15.79a1.377,1.377,0,0,1-1.377,1.375l-5.974.024a.35.35,0,0,0-.258.114L4.9,20.484V17.539a.35.35,0,0,0-.35-.35H2.076A1.377,1.377,0,0,1,.7,15.814v-7.4A1.377,1.377,0,0,1,2.076,7.039L5.25,7.033h0l8.774-.018A1.377,1.377,0,0,1,15.4,8.39v7.4Zm4.9-3.825a1.377,1.377,0,0,1-1.375,1.375H18.2a.35.35,0,0,0-.35.35v2.945L16.1,14.709V8.39a2.078,2.078,0,0,0-2.076-2.075L5.6,6.332V4.54A1.377,1.377,0,0,1,6.975,3.165l11.949.025h0A1.377,1.377,0,0,1,20.3,4.565v7.4Z" fill="#fff" stroke="#fff" stroke-width="0.3"/>
  </g>
</svg>
