<svg id="name" xmlns="http://www.w3.org/2000/svg" width="21" height="17.5" viewBox="0 0 21 17.5">
  <path id="Контур_11922" data-name="Контур 11922" d="M18.594,58.418H2.406A2.408,2.408,0,0,1,0,56.012V45.074a2.408,2.408,0,0,1,2.406-2.406h5.25a.656.656,0,0,1,0,1.313H2.406a1.1,1.1,0,0,0-1.094,1.094V56.012a1.1,1.1,0,0,0,1.094,1.094H18.594a1.1,1.1,0,0,0,1.094-1.094V45.074a1.1,1.1,0,0,0-1.094-1.094h-5.25a.656.656,0,1,1,0-1.313h5.25A2.408,2.408,0,0,1,21,45.074V56.012A2.408,2.408,0,0,1,18.594,58.418Zm0,0" transform="translate(0 -40.918)" fill="#fff"/>
  <path id="Контур_11923" data-name="Контур 11923" d="M176.137,4.812H172.2a1.533,1.533,0,0,1-1.531-1.531V1.531A1.533,1.533,0,0,1,172.2,0h3.938a1.533,1.533,0,0,1,1.531,1.531v1.75A1.533,1.533,0,0,1,176.137,4.812Zm-3.937-3.5a.219.219,0,0,0-.219.219v1.75a.219.219,0,0,0,.219.219h3.938a.219.219,0,0,0,.219-.219V1.531a.219.219,0,0,0-.219-.219Zm0,0" transform="translate(-163.668)" fill="#fff"/>
  <path id="Контур_11924" data-name="Контур 11924" d="M108.855,153.707a2.188,2.188,0,1,1,2.187-2.187A2.191,2.191,0,0,1,108.855,153.707Zm0-3.063a.875.875,0,1,0,.875.875A.876.876,0,0,0,108.855,150.645Zm0,0" transform="translate(-102.293 -143.207)" fill="#fff"/>
  <path id="Контур_11925" data-name="Контур 11925" d="M71.219,280.832a.657.657,0,0,1-.656-.656v-.438a1.1,1.1,0,0,0-1.094-1.094H66.406a1.1,1.1,0,0,0-1.094,1.094v.438a.656.656,0,1,1-1.312,0v-.438a2.408,2.408,0,0,1,2.406-2.406h3.062a2.408,2.408,0,0,1,2.406,2.406v.438A.657.657,0,0,1,71.219,280.832Zm0,0" transform="translate(-61.375 -265.957)" fill="#fff"/>
  <path id="Контур_11926" data-name="Контур 11926" d="M304.137,161.313h-4.812a.656.656,0,0,1,0-1.313h4.812a.656.656,0,0,1,0,1.313Zm0,0" transform="translate(-286.418 -153.438)" fill="#fff"/>
  <path id="Контур_11927" data-name="Контур 11927" d="M304.137,246.645h-4.812a.656.656,0,0,1,0-1.312h4.812a.656.656,0,0,1,0,1.313Zm0,0" transform="translate(-286.418 -235.27)" fill="#fff"/>
  <path id="Контур_11928" data-name="Контур 11928" d="M304.137,331.981h-4.812a.656.656,0,0,1,0-1.312h4.812a.656.656,0,0,1,0,1.313Zm0,0" transform="translate(-286.418 -317.105)" fill="#fff"/>
</svg>
