<svg xmlns="http://www.w3.org/2000/svg" width="24" height="24" viewBox="0 0 24 24">
  <g id="inventory" transform="translate(-1 -1)">
    <path id="Path_11701" data-name="Path 11701" d="M24.886,4.984l-3.87-3.87A.385.385,0,0,0,20.742,1H10.677a.387.387,0,0,0-.387.387V14.545L7,12.664a.386.386,0,0,0-.384,0L1.2,15.761A.387.387,0,0,0,1,16.1v5.419a.387.387,0,0,0,.2.336l5.419,3.1a.386.386,0,0,0,.384,0l5.419-3.1a.387.387,0,0,0,.2-.336V20.355h7.742v3.1a1.548,1.548,0,1,0,3.1,0v-3.1h1.161A.387.387,0,0,0,25,19.968V5.258A.385.385,0,0,0,24.886,4.984ZM21.129,2.322l2.549,2.549H21.129ZM6.806,13.446,11.445,16.1l-1.2.688L5.6,14.134ZM8.934,17.7,4.151,14.963l.672-.384,5.081,2.9v1.472l-.774.387V18.032a.387.387,0,0,0-.2-.336ZM3.371,15.409,8.01,18.06l-1.2.688L2.167,16.1Zm-1.6,1.355,4.645,2.654v4.528L1.774,21.292Zm5.419,7.182V19.418l1.161-.663v1.213a.387.387,0,0,0,.56.346l1.548-.774a.388.388,0,0,0,.214-.346V17.428l1.161-.663v4.527Zm14.323-9.965V21.9h-.387v-8.18Zm.774,0,.387-.258V21.9H22.29Zm-.387-.672-.691-.461.691-1.843.691,1.843Zm0,10.917a.775.775,0,0,1-.774-.774v-.774h1.548v.774A.775.775,0,0,1,21.9,24.226Zm2.323-4.645h-.774V13a.387.387,0,0,0-.024-.136l-1.161-3.1a.387.387,0,0,0-.725,0l-1.161,3.1a.387.387,0,0,0-.024.136v6.581H12.613V16.1a.387.387,0,0,0-.2-.336l-1.353-.773V1.774h9.29V5.258a.387.387,0,0,0,.387.387h3.484Z" fill="#fff"/>
    <path id="Path_11702" data-name="Path 11702" d="M29,15h.774v.774H29Z" transform="translate(-17.161 -8.581)" fill="#fff"/>
    <path id="Path_11703" data-name="Path 11703" d="M33,15H43.065v.774H33Z" transform="translate(-19.613 -8.581)" fill="#fff"/>
    <path id="Path_11704" data-name="Path 11704" d="M57,19h.774v.774H57Z" transform="translate(-34.323 -11.032)" fill="#fff"/>
    <path id="Path_11705" data-name="Path 11705" d="M29,19H39.065v.774H29Z" transform="translate(-17.161 -11.032)" fill="#fff"/>
    <path id="Path_11706" data-name="Path 11706" d="M29,23h7.742v.774H29Z" transform="translate(-17.161 -13.484)" fill="#fff"/>
    <path id="Path_11707" data-name="Path 11707" d="M29,27h7.742v.774H29Z" transform="translate(-17.161 -15.935)" fill="#fff"/>
  </g>
</svg>
