<svg xmlns="http://www.w3.org/2000/svg" width="24.051" height="24.051" viewBox="0 0 24.051 24.051">
  <g id="product" transform="translate(-3 -1)">
    <path id="Path_11672" data-name="Path 11672" d="M26.647,6.5,23.408,1.644A1.443,1.443,0,0,0,22.207,1H7.844a1.443,1.443,0,0,0-1.2.643L3.4,6.5A2.4,2.4,0,0,0,3,7.836V23.608a1.443,1.443,0,0,0,1.443,1.443H25.608a1.443,1.443,0,0,0,1.443-1.443V7.836a2.393,2.393,0,0,0-.4-1.334ZM22.606,2.176l3.065,4.6H18.789l-.935-4.81h4.353a.481.481,0,0,1,.4.214ZM12.139,7.734h5.772v5.424l-2.646-1.513a.481.481,0,0,0-.477,0l-2.649,1.513Zm4.735-5.772.935,4.81H12.242l.935-4.81Zm-9.428.214a.481.481,0,0,1,.4-.214H12.2l-.935,4.81H4.38ZM26.089,23.608a.481.481,0,0,1-.481.481H4.443a.481.481,0,0,1-.481-.481V7.836c0-.034,0-.068.007-.1h7.208v6.253a.481.481,0,0,0,.722.418l3.127-1.787L18.152,14.4a.481.481,0,0,0,.722-.418V7.734h7.208c0,.034.007.067.007.1Z" transform="translate(0)" fill="#fff"/>
    <path id="Path_11673" data-name="Path 11673" d="M12.81,38H9.443A1.443,1.443,0,0,0,8,39.443v.962a1.443,1.443,0,0,0,1.443,1.443H12.81a1.443,1.443,0,0,0,1.443-1.443v-.962A1.443,1.443,0,0,0,12.81,38Zm.481,2.405a.481.481,0,0,1-.481.481H9.443a.481.481,0,0,1-.481-.481v-.962a.481.481,0,0,1,.481-.481H12.81a.481.481,0,0,1,.481.481Z" transform="translate(-2.595 -19.202)" fill="#fff"/>
  </g>
</svg>
