<svg xmlns="http://www.w3.org/2000/svg" width="21" height="19.688" viewBox="0 0 21 19.688">
  <path id="responsive-design" d="M19.77,16H1.23A1.232,1.232,0,0,0,0,17.23v12.3a1.232,1.232,0,0,0,1.23,1.23H7.69v2.461H6.6a.615.615,0,0,0,0,1.23H11.13a1.434,1.434,0,0,0,1.415,1.23h4.523a1.434,1.434,0,0,0,1.43-1.436V30.766H19.77A1.232,1.232,0,0,0,21,29.535V17.23A1.232,1.232,0,0,0,19.77,16Zm0,1.23v9.844H18.5V24.818a1.434,1.434,0,0,0-1.43-1.436H12.545a1.434,1.434,0,0,0-1.43,1.436v2.256H1.23V17.23Zm-2.5,8.613H12.346V24.818a.2.2,0,0,1,.2-.205h4.523a.2.2,0,0,1,.2.205Zm-4.922,1.23h4.922V32H12.346ZM1.23,28.3h9.885v1.23H1.23Zm7.69,2.461h2.194v2.461H8.921Zm8.147,3.691H12.545a.2.2,0,0,1-.2-.205V33.227h4.922v1.025A.2.2,0,0,1,17.068,34.457Zm1.43-4.922V28.3H19.77v1.23Z" transform="translate(0 -16)" fill="#fff"/>
</svg>
