<svg xmlns="http://www.w3.org/2000/svg" width="24.051" height="24.051" viewBox="0 0 24.051 24.051">
  <g id="settings_1_" data-name="settings (1)" transform="translate(0 0)">
    <path id="Path_11502" data-name="Path 11502" d="M12.78,24.051H11.271a2.217,2.217,0,0,1-2.214-2.214v-.511A9.709,9.709,0,0,1,7.549,20.7l-.362.362a2.214,2.214,0,0,1-3.132,0L2.989,20a2.214,2.214,0,0,1,0-3.132l.362-.362a9.71,9.71,0,0,1-.626-1.508H2.214A2.217,2.217,0,0,1,0,12.78V11.271A2.217,2.217,0,0,1,2.214,9.057h.511a9.712,9.712,0,0,1,.626-1.508l-.362-.362a2.214,2.214,0,0,1,0-3.132L4.056,2.989a2.214,2.214,0,0,1,3.131,0l.362.362a9.719,9.719,0,0,1,1.508-.626V2.214A2.217,2.217,0,0,1,11.271,0H12.78a2.217,2.217,0,0,1,2.214,2.214v.511a9.709,9.709,0,0,1,1.508.626l.362-.362a2.214,2.214,0,0,1,3.132,0l1.067,1.067a2.214,2.214,0,0,1,0,3.132l-.362.362a9.71,9.71,0,0,1,.626,1.508h.511a2.217,2.217,0,0,1,2.214,2.214V12.78a2.217,2.217,0,0,1-2.214,2.214h-.511A9.712,9.712,0,0,1,20.7,16.5l.362.362a2.214,2.214,0,0,1,0,3.132l-1.067,1.067a2.214,2.214,0,0,1-3.131,0L16.5,20.7a9.718,9.718,0,0,1-1.508.626v.511A2.217,2.217,0,0,1,12.78,24.051Zm-5-4.83a8.306,8.306,0,0,0,2.153.894.7.7,0,0,1,.529.682v1.04a.806.806,0,0,0,.8.8H12.78a.806.806,0,0,0,.8-.8V20.8a.7.7,0,0,1,.529-.682,8.306,8.306,0,0,0,2.153-.894.7.7,0,0,1,.857.108l.737.737a.8.8,0,0,0,1.138,0L20.066,19a.8.8,0,0,0,0-1.138l-.737-.737a.7.7,0,0,1-.108-.857,8.3,8.3,0,0,0,.894-2.153.7.7,0,0,1,.682-.529h1.04a.806.806,0,0,0,.8-.8V11.271a.806.806,0,0,0-.8-.8H20.8a.7.7,0,0,1-.682-.529,8.306,8.306,0,0,0-.894-2.153.7.7,0,0,1,.108-.857l.737-.737a.8.8,0,0,0,0-1.138L19,3.985a.8.8,0,0,0-1.138,0l-.737.737a.7.7,0,0,1-.857.108,8.306,8.306,0,0,0-2.153-.894.7.7,0,0,1-.529-.682V2.214a.806.806,0,0,0-.8-.8H11.271a.806.806,0,0,0-.8.8v1.04a.7.7,0,0,1-.529.682,8.306,8.306,0,0,0-2.153.894.7.7,0,0,1-.857-.108l-.737-.737a.8.8,0,0,0-1.138,0L3.985,5.052a.8.8,0,0,0,0,1.138l.737.737a.7.7,0,0,1,.108.857,8.3,8.3,0,0,0-.894,2.153.7.7,0,0,1-.682.529H2.214a.806.806,0,0,0-.8.8V12.78a.806.806,0,0,0,.8.8h1.04a.7.7,0,0,1,.682.529,8.306,8.306,0,0,0,.894,2.153.7.7,0,0,1-.108.857l-.737.737a.8.8,0,0,0,0,1.138l1.067,1.067a.8.8,0,0,0,1.138,0l.737-.737a.708.708,0,0,1,.857-.108Z" fill="#fff"/>
    <path id="Path_11503" data-name="Path 11503" d="M149.833,155.066a5.233,5.233,0,1,1,5.233-5.233A5.239,5.239,0,0,1,149.833,155.066Zm0-9.057a3.824,3.824,0,1,0,3.824,3.824A3.828,3.828,0,0,0,149.833,146.009Z" transform="translate(-137.808 -137.808)" fill="#fff"/>
  </g>
</svg>
