<svg xmlns="http://www.w3.org/2000/svg" width="24.051" height="24.051" viewBox="0 0 24.051 24.051">
  <g id="data_analysis-finance-arrow-graph-money" data-name="data analysis-finance-arrow-graph-money" transform="translate(-2 -1.998)">
    <path id="Path_11647" data-name="Path 11647" d="M25.649,2H13.624a.4.4,0,0,0-.4.4V7.612H4a2,2,0,0,0-2,2V20.038a2,2,0,0,0,2,2h4.81v1.6h-.4a1.206,1.206,0,0,0-1.2,1.2v.8a.4.4,0,0,0,.4.4h7.215a.4.4,0,0,0,.4-.4v-.8a1.206,1.206,0,0,0-1.2-1.2h-.4v-1.6h4.81a2,2,0,0,0,2-2V12.422h5.211a.4.4,0,0,0,.4-.4V2.4A.4.4,0,0,0,25.649,2ZM14.025,24.447a.4.4,0,0,1,.4.4v.4H8.013v-.4a.4.4,0,0,1,.4-.4Zm-4.409-.8v-1.6h3.207v1.6Zm10.021-3.608a1.206,1.206,0,0,1-1.2,1.2H4a1.206,1.206,0,0,1-1.2-1.2v-.4H19.637Zm0-1.2H2.8V9.616A1.206,1.206,0,0,1,4,8.413h9.219v3.608a.4.4,0,0,0,.4.4h6.013Zm5.612-7.215H14.025V2.8H25.248Z" transform="translate(0 -0.001)" fill="#fff"/>
    <path id="Path_11648" data-name="Path 11648" d="M10.409,20a4.409,4.409,0,1,0,4.409,4.409A4.409,4.409,0,0,0,10.409,20Zm0,8.017a3.608,3.608,0,1,1,3.608-3.608A3.608,3.608,0,0,1,10.409,28.017Z" transform="translate(-2.397 -10.786)" fill="#fff"/>
    <path id="Path_11649" data-name="Path 11649" d="M15.2,26.2a.4.4,0,0,1,.4.4h.8a1.2,1.2,0,0,0-.8-1.129V25h-.8v.475a1.2,1.2,0,0,0,.4,2.331.4.4,0,1,1-.4.4H14a1.2,1.2,0,0,0,.8,1.129v.475h.8v-.475A1.2,1.2,0,0,0,15.2,27a.4.4,0,1,1,0-.8Z" transform="translate(-7.19 -13.782)" fill="#fff"/>
    <path id="Path_11650" data-name="Path 11650" d="M54.717,32.558l-2-2.405a.414.414,0,0,0-.617,0l-2,2.405a.4.4,0,0,0,.309.657h.8v9.219a.4.4,0,0,0,.4.4h1.6a.4.4,0,0,0,.4-.4V33.216h.8a.4.4,0,0,0,.309-.657Zm-1.511-.144a.4.4,0,0,0-.4.4v9.219H52V32.815a.4.4,0,0,0-.4-.4h-.349l1.15-1.379,1.15,1.379Z" transform="translate(-28.759 -16.787)" fill="#fff"/>
    <path id="Path_11651" data-name="Path 11651" d="M12.277,4.1l-2.405-2a.4.4,0,0,0-.657.309v.8H2.4a.4.4,0,0,0-.4.4v1.6a.4.4,0,0,0,.4.4H9.215v.8a.4.4,0,0,0,.232.365.41.41,0,0,0,.168.036.4.4,0,0,0,.257-.092l2.405-2a.4.4,0,0,0,0-.617ZM10.017,5.55V5.206a.4.4,0,0,0-.4-.4H2.8V4H9.616a.4.4,0,0,0,.4-.4V3.258L11.4,4.4Z" transform="translate(0)" fill="#fff"/>
    <path id="Path_11652" data-name="Path 11652" d="M35.4,18.008H37a.4.4,0,0,0,.4-.4V14.4A.4.4,0,0,0,37,14H35.4a.4.4,0,0,0-.4.4v3.207A.4.4,0,0,0,35.4,18.008Zm.4-3.207h.8v2.405h-.8Z" transform="translate(-19.772 -7.191)" fill="#fff"/>
    <path id="Path_11653" data-name="Path 11653" d="M43.4,15.612H45a.4.4,0,0,0,.4-.4V10.4A.4.4,0,0,0,45,10H43.4a.4.4,0,0,0-.4.4v4.81A.4.4,0,0,0,43.4,15.612Zm.4-4.81h.8V14.81h-.8Z" transform="translate(-24.566 -4.794)" fill="#fff"/>
    <path id="Path_11654" data-name="Path 11654" d="M51.4,13.215H53a.4.4,0,0,0,.4-.4V6.4A.4.4,0,0,0,53,6H51.4a.4.4,0,0,0-.4.4v6.413A.4.4,0,0,0,51.4,13.215ZM51.8,6.8h.8v5.612h-.8Z" transform="translate(-29.359 -2.398)" fill="#fff"/>
    <path id="Path_11655" data-name="Path 11655" d="M30,30h1.6v.8H30Z" transform="translate(-16.777 -16.778)" fill="#fff"/>
    <path id="Path_11656" data-name="Path 11656" d="M36,30h2.405v.8H36Z" transform="translate(-20.372 -16.778)" fill="#fff"/>
    <path id="Path_11657" data-name="Path 11657" d="M30,34h1.6v.8H30Z" transform="translate(-16.777 -19.174)" fill="#fff"/>
    <path id="Path_11658" data-name="Path 11658" d="M36,34h2.405v.8H36Z" transform="translate(-20.372 -19.174)" fill="#fff"/>
    <path id="Path_11659" data-name="Path 11659" d="M30,38h1.6v.8H30Z" transform="translate(-16.777 -21.571)" fill="#fff"/>
    <path id="Path_11660" data-name="Path 11660" d="M36,38h2.405v.8H36Z" transform="translate(-20.372 -21.571)" fill="#fff"/>
  </g>
</svg>
