<svg id="team" xmlns="http://www.w3.org/2000/svg" width="24.051" height="24.051" viewBox="0 0 24.051 24.051">
  <g id="Group_3214" data-name="Group 3214" transform="translate(9.219)">
    <g id="Group_3213" data-name="Group 3213">
      <path id="Path_11639" data-name="Path 11639" d="M186.806,0a2.806,2.806,0,1,0,2.806,2.806A2.806,2.806,0,0,0,186.806,0Zm0,4.81a2,2,0,1,1,2-2A2,2,0,0,1,186.806,4.81Z" transform="translate(-184)" fill="#fff"/>
    </g>
  </g>
  <g id="Group_3216" data-name="Group 3216" transform="translate(7.215 6.013)">
    <g id="Group_3215" data-name="Group 3215">
      <path id="Path_11640" data-name="Path 11640" d="M150.013,120h-2.405A3.612,3.612,0,0,0,144,123.608v6.814h1.6v7.616h.8v-9.219h-.8v.8h-.8v-6.013a2.809,2.809,0,0,1,2.806-2.806h2.405a2.809,2.809,0,0,1,2.806,2.806v6.013h-.8v-.8h-.8v9.219h.8v-7.616h1.6v-6.814A3.612,3.612,0,0,0,150.013,120Z" transform="translate(-144 -120)" fill="#fff"/>
    </g>
  </g>
  <g id="Group_3218" data-name="Group 3218" transform="translate(11.359 16.602)">
    <g id="Group_3217" data-name="Group 3217" transform="translate(0 0)">
      <rect id="Rectangle_716" data-name="Rectangle 716" width="2" height="7" transform="translate(-0.359 0.398)" fill="#fff"/>
    </g>
  </g>
  <g id="Group_3220" data-name="Group 3220" transform="translate(17.637 4.008)">
    <g id="Group_3219" data-name="Group 3219">
      <path id="Path_11641" data-name="Path 11641" d="M354.405,80a2.405,2.405,0,1,0,2.405,2.405A2.405,2.405,0,0,0,354.405,80Zm0,4.008a1.6,1.6,0,1,1,1.6-1.6A1.6,1.6,0,0,1,354.405,84.008Z" transform="translate(-352 -80)" fill="#fff"/>
    </g>
  </g>
  <g id="Group_3222" data-name="Group 3222" transform="translate(17.637 9.219)">
    <g id="Group_3221" data-name="Group 3221">
      <path id="Path_11642" data-name="Path 11642" d="M355.608,184H352v.8h3.608a2.007,2.007,0,0,1,2,2v5.211h-.8v-.8h-.8v7.616h.8v-6.013h1.6v-6.013A2.809,2.809,0,0,0,355.608,184Z" transform="translate(-352 -184)" fill="#fff"/>
    </g>
  </g>
  <g id="Group_3224" data-name="Group 3224" transform="translate(16.034 16.435)">
    <g id="Group_3223" data-name="Group 3223">
      <path id="Path_11643" data-name="Path 11643" d="M321.6,328v.8H320v.8h1.6v6.013h.8V328Z" transform="translate(-320 -328)" fill="#fff"/>
    </g>
  </g>
  <g id="Group_3226" data-name="Group 3226" transform="translate(19.66 18.349)">
    <g id="Group_3225" data-name="Group 3225" transform="translate(0 0)">
      <rect id="Rectangle_717" data-name="Rectangle 717" width="1" height="6" transform="translate(0.34 -0.349)" fill="#fff"/>
    </g>
  </g>
  <g id="Group_3228" data-name="Group 3228" transform="translate(1.603 4.008)">
    <g id="Group_3227" data-name="Group 3227">
      <path id="Path_11644" data-name="Path 11644" d="M34.405,80a2.405,2.405,0,1,0,2.405,2.405A2.405,2.405,0,0,0,34.405,80Zm0,4.008a1.6,1.6,0,1,1,1.6-1.6A1.6,1.6,0,0,1,34.405,84.008Z" transform="translate(-32 -80)" fill="#fff"/>
    </g>
  </g>
  <g id="Group_3230" data-name="Group 3230" transform="translate(0 9.219)">
    <g id="Group_3229" data-name="Group 3229">
      <path id="Path_11645" data-name="Path 11645" d="M2.806,184A2.809,2.809,0,0,0,0,186.806v6.013H1.6v6.013h.8v-7.616H1.6v.8H.8v-5.211a2.007,2.007,0,0,1,2-2H6.414V184Z" transform="translate(0 -184)" fill="#fff"/>
    </g>
  </g>
  <g id="Group_3232" data-name="Group 3232" transform="translate(5.612 16.435)">
    <g id="Group_3231" data-name="Group 3231">
      <path id="Path_11646" data-name="Path 11646" d="M112.8,328.8V328H112v7.616h.8V329.6h1.6v-.8Z" transform="translate(-112 -328)" fill="#fff"/>
    </g>
  </g>
  <g id="Group_3234" data-name="Group 3234" transform="translate(3.495 18.349)">
    <g id="Group_3233" data-name="Group 3233" transform="translate(0 0)">
      <rect id="Rectangle_718" data-name="Rectangle 718" width="1" height="6" transform="translate(-0.495 -0.349)" fill="#fff"/>
    </g>
  </g>
</svg>
