<svg xmlns="http://www.w3.org/2000/svg" width="24" height="24" viewBox="0 0 24 24">
  <g id="money-computer-laptop-smartphone-briefcase" transform="translate(-2 -2)">
    <path id="Path_11689" data-name="Path 11689" d="M29,23a6,6,0,1,0-6,6A6,6,0,0,0,29,23ZM17.8,23A5.2,5.2,0,1,1,23,28.2,5.2,5.2,0,0,1,17.8,23Z" transform="translate(-9 -9)" fill="#fff"/>
    <path id="Path_11690" data-name="Path 11690" d="M48.8,2H43.2A1.2,1.2,0,0,0,42,3.2V6.4a1.2,1.2,0,0,0,1.2,1.2h1.6v.8H44v.8h4V8.4h-.8V7.6h1.6A1.2,1.2,0,0,0,50,6.4V3.2A1.2,1.2,0,0,0,48.8,2ZM46.4,8.4h-.8V7.6h.8Zm2.8-2a.4.4,0,0,1-.4.4H43.2a.4.4,0,0,1-.4-.4V6h6.4Zm0-1.2H42.8v-2a.4.4,0,0,1,.4-.4h5.6a.4.4,0,0,1,.4.4Z" transform="translate(-24)" fill="#fff"/>
    <path id="Path_11691" data-name="Path 11691" d="M8,45.6H7.6v-.4A1.2,1.2,0,0,0,6.4,44H3.2A1.2,1.2,0,0,0,2,45.2V50a1.2,1.2,0,0,0,1.2,1.2H8A1.2,1.2,0,0,0,9.2,50V46.8A1.2,1.2,0,0,0,8,45.6ZM5.272,50.4H3.2a.4.4,0,0,1-.4-.4V45.2a.4.4,0,0,1,.4-.4H6.4a.4.4,0,0,1,.4.4v.4H6.4a1.2,1.2,0,0,0-1.2,1.2V50a1.2,1.2,0,0,0,.072.4ZM8.4,50a.4.4,0,0,1-.4.4H6.4A.4.4,0,0,1,6,50V46.8a.4.4,0,0,1,.4-.4H8a.4.4,0,0,1,.4.4Z" transform="translate(0 -25.2)" fill="#fff"/>
    <path id="Path_11692" data-name="Path 11692" d="M49.6,50V47.2A1.2,1.2,0,0,0,48.4,46H43.6a1.2,1.2,0,0,0-1.2,1.2V50a.4.4,0,0,0-.4.4v.8a1.2,1.2,0,0,0,1.2,1.2h5.6A1.2,1.2,0,0,0,50,51.2v-.8A.4.4,0,0,0,49.6,50Zm-6.4-2.8a.4.4,0,0,1,.4-.4h4.8a.4.4,0,0,1,.4.4V50H43.2Zm6,4a.4.4,0,0,1-.4.4H43.2a.4.4,0,0,1-.4-.4v-.4h6.4Z" transform="translate(-24 -26.4)" fill="#fff"/>
    <path id="Path_11693" data-name="Path 11693" d="M30,30.2v-.857a1.6,1.6,0,0,0-.4-3.143.8.8,0,1,1,.8-.8h.8A1.6,1.6,0,0,0,30,23.857V23h-.8v.857A1.6,1.6,0,0,0,29.6,27a.8.8,0,1,1-.8.8H28a1.6,1.6,0,0,0,1.2,1.543V30.2Z" transform="translate(-15.6 -12.6)" fill="#fff"/>
    <path id="Path_11694" data-name="Path 11694" d="M8.8,3.6H7.6V2.4A.4.4,0,0,0,7.2,2H4a.4.4,0,0,0-.4.4V3.6H2.4A.4.4,0,0,0,2,4V8a.4.4,0,0,0,.4.4H8.8A.4.4,0,0,0,9.2,8V4A.4.4,0,0,0,8.8,3.6ZM4.4,2.8H6.8v.8H4.4Zm4,4.8H2.8V6h.8v.4h.8V6H6.8v.4h.8V6h.8Zm0-2.4H2.8V4.4H8.4Z" transform="translate(0 0)" fill="#fff"/>
    <path id="Path_11695" data-name="Path 11695" d="M27.717,6.493l.566.566,1.6-1.6a.4.4,0,0,0,0-.566l-1.6-1.6-.566.566.917.917H24v.8h4.634Z" transform="translate(-13.2 -0.776)" fill="#fff"/>
    <path id="Path_11696" data-name="Path 11696" d="M53.776,25v4.634l-.917-.917-.566.566,1.6,1.6a.4.4,0,0,0,.566,0l1.6-1.6-.566-.566-.917.917V25Z" transform="translate(-30.176 -13.8)" fill="#fff"/>
    <path id="Path_11697" data-name="Path 11697" d="M4.576,30V25.366l.917.917.566-.566-1.6-1.6a.4.4,0,0,0-.566,0l-1.6,1.6.566.566.917-.917V30Z" transform="translate(-0.176 -13.2)" fill="#fff"/>
    <path id="Path_11698" data-name="Path 11698" d="M25.283,51.859l-.566-.566-1.6,1.6a.4.4,0,0,0,0,.566l1.6,1.6.566-.566-.917-.917H29v-.8H24.366Z" transform="translate(-12.6 -29.576)" fill="#fff"/>
    <path id="Path_11699" data-name="Path 11699" d="M22.292,24.222a4.4,4.4,0,0,0,0,6.222l.566-.566a3.6,3.6,0,0,1,0-5.091Z" transform="translate(-11.403 -13.333)" fill="#fff"/>
    <path id="Path_11700" data-name="Path 11700" d="M38.93,30.444a4.4,4.4,0,0,0,0-6.222l-.566.566a3.6,3.6,0,0,1,0,5.091Z" transform="translate(-21.818 -13.333)" fill="#fff"/>
  </g>
</svg>
