<svg id="Yangiliklar" xmlns="http://www.w3.org/2000/svg" width="21" height="21" viewBox="0 0 21 21">
  <path id="Контур_12017" data-name="Контур 12017" d="M20.692,0H4a.308.308,0,0,0-.308.308V2.461H.308A.308.308,0,0,0,0,2.769V18.847A2.156,2.156,0,0,0,2.153,21H18.847A2.156,2.156,0,0,0,21,18.847V.308A.308.308,0,0,0,20.692,0ZM2.153,20.385A1.54,1.54,0,0,1,.615,18.847V3.076H1.23v7.116a.308.308,0,0,0,.615,0V3.076h.615V18.847a.308.308,0,0,1-.615,0V11.423a.308.308,0,0,0-.615,0v7.424a.923.923,0,0,0,1.846,0V3.076h.615V18.847A1.54,1.54,0,0,1,2.153,20.385Zm18.231-1.538a1.54,1.54,0,0,1-1.538,1.538H3.659a2.147,2.147,0,0,0,.648-1.538V.615H20.385Z" fill="#fff"/>
  <path id="Контур_12018" data-name="Контур 12018" d="M150.308,287.615h5.271a.308.308,0,0,0,0-.615h-5.271a.308.308,0,0,0,0,.615Z" transform="translate(-143.848 -275.229)" fill="#fff"/>
  <path id="Контур_12019" data-name="Контур 12019" d="M150.308,317.615h5.271a.308.308,0,0,0,0-.615h-5.271a.308.308,0,0,0,0,.615Z" transform="translate(-143.848 -303.998)" fill="#fff"/>
  <path id="Контур_12020" data-name="Контур 12020" d="M150.308,257.615h5.271a.308.308,0,0,0,0-.615h-5.271a.308.308,0,0,0,0,.615Z" transform="translate(-143.848 -246.459)" fill="#fff"/>
  <path id="Контур_12021" data-name="Контур 12021" d="M150.308,227.615h5.271a.308.308,0,0,0,0-.615h-5.271a.308.308,0,0,0,0,.615Z" transform="translate(-143.848 -217.689)" fill="#fff"/>
  <path id="Контур_12022" data-name="Контур 12022" d="M314.078,227h-5.271a.308.308,0,0,0-.308.308v4.922a.308.308,0,0,0,.308.308h5.271a.308.308,0,0,0,.308-.308v-4.922A.308.308,0,0,0,314.078,227Zm-.308,4.922h-4.655v-4.307h4.655Z" transform="translate(-295.847 -217.689)" fill="#fff"/>
  <path id="Контур_12023" data-name="Контур 12023" d="M150.308,95h11.771a.308.308,0,0,0,.308-.308V90.308a.308.308,0,0,0-.308-.308H150.308a.308.308,0,0,0-.308.308V94.7A.308.308,0,0,0,150.308,95Zm.308-.615v-.615h11.156v.615Zm11.156-3.773v2.543H150.615V90.615Z" transform="translate(-143.848 -86.309)" fill="#fff"/>
  <path id="Контур_12024" data-name="Контур 12024" d="M150.308,60.615h11.771a.308.308,0,0,0,0-.615H150.308a.308.308,0,0,0,0,.615Z" transform="translate(-143.848 -57.539)" fill="#fff"/>
  <path id="Контур_12025" data-name="Контур 12025" d="M314.078,377h-5.271a.308.308,0,0,0,0,.615h5.271a.308.308,0,0,0,0-.615Z" transform="translate(-295.847 -361.537)" fill="#fff"/>
  <path id="Контур_12026" data-name="Контур 12026" d="M314.078,407h-5.271a.308.308,0,0,0,0,.615h5.271a.308.308,0,0,0,0-.615Z" transform="translate(-295.847 -390.307)" fill="#fff"/>
  <path id="Контур_12027" data-name="Контур 12027" d="M314.078,437h-5.271a.308.308,0,0,0,0,.615h5.271a.308.308,0,0,0,0-.615Z" transform="translate(-295.847 -419.076)" fill="#fff"/>
  <path id="Контур_12028" data-name="Контур 12028" d="M150.308,377.615h5.271a.308.308,0,0,0,0-.615h-5.271a.308.308,0,0,0,0,.615Z" transform="translate(-143.848 -361.537)" fill="#fff"/>
  <path id="Контур_12029" data-name="Контур 12029" d="M150.308,347.615h5.271a.308.308,0,0,0,0-.615h-5.271a.308.308,0,0,0,0,.615Z" transform="translate(-143.848 -332.768)" fill="#fff"/>
  <path id="Контур_12030" data-name="Контур 12030" d="M150.308,407.615h5.271a.308.308,0,0,0,0-.615h-5.271a.308.308,0,0,0,0,.615Z" transform="translate(-143.848 -390.307)" fill="#fff"/>
  <path id="Контур_12031" data-name="Контур 12031" d="M150.308,437.615h5.271a.308.308,0,0,0,0-.615h-5.271a.308.308,0,0,0,0,.615Z" transform="translate(-143.848 -419.076)" fill="#fff"/>
</svg>
