<svg xmlns="http://www.w3.org/2000/svg" width="21" height="21.001" viewBox="0 0 21 21.001">
  <g id="Сгруппировать_3234" data-name="Сгруппировать 3234" transform="translate(-31 -408)">
    <path id="Контур_11933" data-name="Контур 11933" d="M17.813,23.125H11.906a.656.656,0,0,1-.656-.656V17.656A.656.656,0,0,1,11.906,17h5.906a.656.656,0,0,1,.656.656v4.813A.656.656,0,0,1,17.813,23.125Zm-5.25-1.312h4.594v-3.5H12.563Z" transform="translate(29.594 405.876)" fill="#fff"/>
    <path id="Контур_11934" data-name="Контур 11934" d="M14.344,17.563H8.656A.656.656,0,0,1,8,16.906v-5.25A.656.656,0,0,1,8.656,11h5.688a.656.656,0,0,1,.656.656v5.25A.656.656,0,0,1,14.344,17.563ZM9.313,16.25h4.375V12.313H9.313Z" transform="translate(30 406.626)" fill="#fff"/>
    <path id="Контур_11935" data-name="Контур 11935" d="M11.063,23.125H5.156a.656.656,0,0,1-.656-.656V17.656A.656.656,0,0,1,5.156,17h5.906a.656.656,0,0,1,.656.656v4.813A.656.656,0,0,1,11.063,23.125Zm-5.25-1.312h4.594v-3.5H5.813Z" transform="translate(30.438 405.876)" fill="#fff"/>
    <path id="Контур_11939" data-name="Контур 11939" d="M19.469,21H1.531A1.533,1.533,0,0,1,0,19.469V7.437A.657.657,0,0,1,.284,6.9L10.128.115a.655.655,0,0,1,.745,0L20.716,6.9A.659.659,0,0,1,21,7.437V19.469A1.533,1.533,0,0,1,19.469,21ZM1.313,7.782V19.469a.219.219,0,0,0,.219.219H19.469a.219.219,0,0,0,.219-.219V7.782L10.5,1.453Z" transform="translate(31 408.001)" fill="#fff"/>
  </g>
</svg>
